<svg width="25" height="9" viewBox="0 0 25 9" fill="none" xmlns="http://www.w3.org/2000/svg">
<path d="M3.948 0.188C2.324 0.188 1.008 1 0.56 2.26L2.366 3.128C2.59 2.442 3.206 2.008 3.948 2.008C4.648 2.008 5.124 2.386 5.124 2.96V3.212L2.73 3.716C1.176 4.038 0.28 4.78 0.28 5.914C0.28 7.188 1.372 8.168 3.108 8.168C3.99 8.168 4.69 7.902 5.264 7.3V8H7.224V2.96C7.224 1.322 5.894 0.188 3.948 0.188ZM3.43 6.628C2.828 6.628 2.45 6.348 2.45 5.886C2.45 5.536 2.674 5.27 3.108 5.172L5.124 4.724V5.088C5.124 5.942 4.382 6.628 3.43 6.628ZM13.1446 0.188C12.1786 0.188 11.3946 0.537999 11.0026 1.28V0.356H9.04258V8H11.1426V3.534C11.1426 2.652 11.7166 2.078 12.5426 2.078C13.3686 2.078 13.9426 2.652 13.9426 3.534V8H16.0426V3.086C16.0426 1.35 14.8666 0.188 13.1446 0.188ZM21.0944 8.168C22.9284 8.168 24.2024 7.202 24.2024 5.788C24.2024 4.696 23.4744 3.912 22.1164 3.548L20.7024 3.17C20.4504 3.1 19.9184 2.96 19.9184 2.498C19.9184 2.106 20.2824 1.868 20.8984 1.868C21.7244 1.868 22.3824 2.26 22.6344 2.918L24.2024 2.19C23.7124 0.944 22.4664 0.188 20.8984 0.188C19.1064 0.188 17.8884 1.154 17.8884 2.568C17.8884 3.618 18.5604 4.43 19.9464 4.794L21.2904 5.144C21.5564 5.214 22.1724 5.368 22.1724 5.872C22.1724 6.292 21.7524 6.558 21.0944 6.558C20.2264 6.558 19.5404 6.096 19.1344 5.242L17.5804 5.97C18.0564 7.356 19.4284 8.168 21.0944 8.168Z" fill="#B8BEC6"/>
</svg>
