<svg width="24" height="24" viewBox="0 0 24 24" fill="none" xmlns="http://www.w3.org/2000/svg">
<path d="M13.2092 23.0144L23.6223 12.6013C24.1259 12.1031 24.1259 11.2889 23.6223 10.7854L13.2092 0.377652C12.7111 -0.125884 11.8969 -0.125884 11.3934 0.377652L10.2042 1.56681C9.69001 2.07569 9.70068 2.90595 10.2257 3.4041L16.6803 9.5534H1.28557C0.57316 9.5534 0 10.1266 0 10.839V12.5531C0 13.2655 0.57316 13.8386 1.28557 13.8386H16.6803L10.2257 19.9879C9.70606 20.4861 9.69534 21.3163 10.2042 21.8252L11.3934 23.0144C11.8915 23.5179 12.7057 23.5179 13.2092 23.0144Z" fill="#01588C"/>
</svg>
