<svg width="24" height="24" viewBox="0 0 24 24" fill="none" xmlns="http://www.w3.org/2000/svg">
<path d="M10.7908 0.377225L0.377652 10.7903C-0.125884 11.2885 -0.125884 12.1027 0.377651 12.6062L10.7908 23.0139C11.2889 23.5175 12.1031 23.5175 12.6066 23.0139L13.7958 21.8248C14.31 21.3159 14.2993 20.4857 13.7743 19.9875L7.31971 13.8382L22.7144 13.8382C23.4268 13.8382 24 13.265 24 12.5526L24 10.8385C24 10.1261 23.4268 9.55297 22.7144 9.55297L7.31971 9.55297L13.7743 3.40367C14.2939 2.90552 14.3047 2.07526 13.7958 1.56639L12.6066 0.377225C12.1085 -0.126311 11.2943 -0.126311 10.7908 0.377225Z" fill="#01588C"/>
</svg>
