<svg width="3" height="6" viewBox="0 0 3 6" fill="none" xmlns="http://www.w3.org/2000/svg">
<path fill-rule="evenodd" clip-rule="evenodd" d="M2.8536 0.175892C2.94734 0.288549 3 0.441325 3 0.600623C3 0.75992 2.94734 0.912696 2.8536 1.02535L1.20698 3.00363L2.8536 4.9819C2.94468 5.0952 2.99508 5.24695 2.99394 5.40447C2.9928 5.56198 2.94022 5.71266 2.84751 5.82404C2.75479 5.93543 2.62938 5.99861 2.49827 5.99998C2.36716 6.00135 2.24085 5.94079 2.14655 5.83136L0.146404 3.42836C0.0526615 3.3157 0 3.16292 0 3.00363C0 2.84433 0.0526615 2.69155 0.146404 2.5789L2.14655 0.175892C2.24032 0.0632684 2.36748 0 2.50007 0C2.63266 0 2.75983 0.0632684 2.8536 0.175892Z" fill="#777E90"/>
</svg>
