<svg width="940" height="930" viewBox="0 0 940 930" fill="none" xmlns="http://www.w3.org/2000/svg">
<g clip-path="url(#clip0_383_443)">
<rect width="940" height="930" fill="#01588C"/>
<circle cx="875" cy="899" r="157" fill="#F8EDE3"/>
<g opacity="0.6">
<path opacity="0.22" d="M104.105 6.68798C117.467 17.4053 125.164 35.6678 124.727 55.5848C124.522 65.1631 122.404 74.6242 120.399 83.7446C119.815 86.3041 119.283 88.9057 118.75 91.5084C113.113 118.836 111.996 146.716 115.334 174.398C116.837 187.142 119.983 193.163 124.332 201.493C126.106 204.888 128.118 208.831 130.307 213.705C132.616 218.852 135.121 224.077 137.516 229.123C141.471 237.298 145.596 245.79 148.88 254.45C157.686 277.207 161.842 301.741 165.787 325.49C166.316 328.804 166.896 332.161 167.478 335.518C166.593 335.738 165.708 335.956 164.815 336.082C164.226 332.63 163.645 329.272 163.065 325.916C159.136 302.355 155.04 277.958 146.353 255.474C143.034 246.959 138.961 238.511 135.006 230.335C132.611 225.29 130.011 220.073 127.745 214.874C125.607 210.044 123.603 206.195 121.83 202.799C117.361 194.195 114.198 187.986 112.561 174.782C109.198 146.818 110.384 118.647 115.996 91.038C116.529 88.4353 117.113 85.8769 117.689 83.2229C119.702 74.197 121.735 64.8385 121.964 55.5415C122.423 36.4269 115.084 18.9853 102.338 8.78237C100.343 7.20465 98.1769 5.83129 96.0526 4.4069L94.2891 3.28241C81.2632 -5.23946 69.4454 -15.7124 58.1326 -25.8508C52.2454 -31.1128 46.1522 -36.5462 39.9043 -41.5874C40.7723 -41.9943 41.6838 -42.4522 42.6549 -42.7734C48.6028 -37.8954 54.3365 -32.762 59.9591 -27.8082C71.2627 -17.7639 82.9786 -7.37657 95.8579 1.11068L97.6226 2.23505C99.7892 3.60842 102.007 5.02461 104.105 6.68798Z" fill="white"/>
<path opacity="0.22" d="M-52.9281 45.0132C-51.5494 58.5249 -51.602 71.4511 -53.1971 83.6118C-53.9922 90.2594 -55.7136 96.6576 -57.4001 102.91C-61.3385 117.642 -65.1112 131.554 -56.7442 147.155C-52.4713 155.16 -45.7989 161.775 -39.3402 168.123C-33.7114 173.692 -27.9286 179.388 -23.5742 186.157C-18.5028 194.046 -15.4776 203.012 -12.5717 211.705C-9.92923 219.568 -6.79797 227.579 -3.47948 236.094C5.84652 259.895 15.4275 284.43 15.1056 308.361C14.1978 307.777 13.2899 307.193 12.4252 306.559C12.3145 283.66 3.04803 259.996 -5.96339 237.068C-9.28188 228.552 -12.4644 220.499 -15.1153 212.541C-18.0046 204.037 -20.9186 195.25 -25.8278 187.583C-30.063 181.089 -35.7431 175.478 -41.2179 170.038C-47.8306 163.561 -54.6571 156.819 -59.1519 148.453C-67.9362 131.895 -64.0591 117.547 -60.0245 102.287C-58.3727 96.1792 -56.6945 89.8323 -55.8829 83.3714C-54.5416 72.6528 -54.3403 61.4181 -55.2869 49.5729C-54.4315 47.9365 -53.7055 46.4534 -52.9281 45.0132Z" fill="white"/>
<path opacity="0.22" d="M91.5419 23.4479C100.632 40.7846 104.457 59.3836 103.15 80.2284C102.389 92.1281 100.838 103.717 99.2556 114.93C96.4305 135.292 93.7463 154.552 95.8545 175.809C97.5883 193.36 106.308 205.949 115.517 219.205C118.292 223.176 121.128 227.283 123.843 231.638C137.22 252.814 143.299 277.559 147.079 296.731C148.008 301.336 148.893 305.992 149.829 310.691C151.567 319.627 153.321 328.752 155.256 337.765C154.363 337.891 153.47 338.016 152.577 338.14C150.642 329.127 148.896 320.096 147.158 311.16C146.273 306.504 145.387 301.848 144.459 297.243C140.696 278.26 134.745 253.882 121.589 233.065C118.883 228.804 116.047 224.697 113.322 220.768C103.893 207.153 95.0106 194.342 93.2184 176.134C91.1286 154.543 93.7532 135.146 96.655 114.588C98.1952 103.426 99.8053 91.9744 100.524 80.1259C101.778 59.7595 98.0887 41.6212 89.2288 24.7378C79.6772 6.49463 66.1714 -2.0801 49.0929 -12.8525L45.3162 -15.2218C37.1534 -20.3805 29.2845 -25.9907 21.709 -32.0524C22.5177 -32.5961 23.3346 -33.0458 24.1516 -33.4956C31.4107 -27.7849 38.9206 -22.4747 46.6881 -17.4711L50.4648 -15.1018C67.8949 -4.12323 81.6503 4.57178 91.5419 23.4479Z" fill="white"/>
<path opacity="0.22" d="M136.039 -2.43328C150.961 11.414 157.873 33.1999 153.626 53.0699C152.351 59.1444 150.152 64.9684 147.936 70.6045C147.312 72.173 146.74 73.7848 146.116 75.3533C132.827 111.44 130.074 151.012 138.104 189.835C141.651 206.897 149.105 223.476 156.269 239.466C160.706 249.35 165.264 259.509 168.877 269.749C174.573 285.819 176.034 302.967 177.393 319.51C177.773 323.831 178.119 328.298 178.55 332.661C177.666 332.881 176.832 333.142 175.947 333.362C175.448 328.767 175.051 324.257 174.655 319.748C173.26 303.351 171.867 286.433 166.29 270.636C162.737 260.533 158.18 250.374 153.793 240.533C146.57 224.406 139.056 207.689 135.441 190.397C127.275 151.113 130.082 111.064 143.613 74.483C144.185 72.8712 144.808 71.3028 145.432 69.7331C147.562 64.1996 149.719 58.4268 150.967 52.5913C154.962 33.6426 148.373 12.8225 134.119 -0.467614C126.349 -7.64848 116.779 -12.5899 107.464 -17.3172C104.174 -19.0187 100.739 -20.7548 97.4398 -22.5505C90.6377 -26.3129 84.525 -30.8927 78.4718 -35.3356C74.7043 -38.1317 70.8349 -41.0133 66.8956 -43.605C64.0694 -45.4416 61.4322 -47.2947 58.7949 -49.1477C59.8599 -49.4771 60.926 -49.8065 61.9395 -50.1787C64.0202 -48.7032 66.1444 -47.2788 68.3625 -45.8626C72.4049 -43.1851 76.2743 -40.3034 80.0418 -37.5075C85.9919 -33.1502 92.1046 -28.5704 98.6582 -24.9282C101.914 -23.0817 105.299 -21.3884 108.631 -19.7379C118.194 -14.8903 127.962 -9.87123 136.039 -2.43328Z" fill="white"/>
<path opacity="0.22" d="M182.92 30.6889C183.653 44.9663 179.489 60.3802 170.933 75.0866C169.448 77.6779 168.032 79.9777 166.659 82.2274C160.212 92.7751 155.559 100.469 154.67 114.699C153.709 129.739 153.776 145.115 154.918 160.256C157.304 192.802 165.436 229.533 177.894 263.521C179.723 268.615 181.842 273.78 183.851 278.764C188.166 289.417 192.661 300.479 195.239 311.945C196.322 316.679 197.129 321.531 197.697 326.357C196.871 326.713 195.994 327.026 195.118 327.338C194.534 322.325 193.762 317.328 192.671 312.5C190.066 301.273 185.674 290.296 181.419 279.78C179.41 274.796 177.291 269.631 175.41 264.494C162.927 230.224 154.684 193.314 152.273 160.487C151.167 145.2 151.091 129.73 152.044 114.596C152.97 99.7005 157.752 91.8536 164.407 80.9562C165.736 78.7578 167.194 76.4068 168.637 73.8667C176.942 59.56 180.966 44.7269 180.232 30.9701C179.411 15.1384 172.104 0.770394 160.614 -7.60125C153.902 -12.5074 145.8 -15.3523 137.939 -18.1707C136.464 -18.705 134.99 -19.2393 133.515 -19.7736C111.69 -27.719 90.9919 -39.0758 72.293 -53.1151C73.4106 -53.4016 74.4756 -53.731 75.6436 -53.9746C93.7093 -40.6375 113.595 -29.8726 134.485 -22.2719C135.96 -21.7376 137.434 -21.2033 138.909 -20.669C146.916 -17.816 155.266 -14.8508 162.279 -9.78129C174.325 -1.03217 182.128 14.0974 182.92 30.6889Z" fill="white"/>
<path opacity="0.22" d="M194.728 -6.02593C201.096 4.16399 201.758 16.5545 202.347 27.5786C203.26 43.9229 203.302 59.5386 194.454 71.4782C192.118 74.6642 189.259 77.3262 186.444 79.938C183.895 82.3369 181.26 84.8383 179.079 87.6313C167.94 102.185 170.632 118.184 173.552 135.159C174.007 137.628 174.411 140.054 174.772 142.532C175.476 147.298 176.37 152.047 177.168 156.805C179.569 170.559 182.06 184.826 181.953 198.75L181.976 199.553C181.842 213.717 181.705 228.401 184.233 242.523C186.271 253.8 191.156 263.361 196.281 273.47C197.543 275.916 198.753 278.319 199.972 280.816C206.058 293.208 210.21 306.335 213.402 319.358C212.585 319.808 211.76 320.164 210.892 320.57C207.744 307.497 203.591 294.37 197.556 282.02C196.388 279.566 195.126 277.12 193.916 274.717C188.681 264.428 183.684 254.687 181.613 243.034C179.018 228.682 179.146 213.904 179.314 199.595L179.292 198.793C179.424 185.15 176.941 170.977 174.55 157.318C173.699 152.517 172.848 147.716 172.144 142.95C171.739 140.524 171.379 138.046 170.924 135.577C168.071 118.834 165.118 101.483 177.033 86.0104C179.292 83.0215 182.064 80.4609 184.699 77.9595C187.377 75.408 190.193 72.7961 192.358 69.8152C200.696 58.5818 200.601 43.4444 199.78 27.6127C199.224 16.9643 198.545 4.90666 192.56 -4.70132C184.579 -17.5434 169.234 -23.213 154.378 -28.7358L151.326 -29.8903C131.251 -37.4199 111.97 -46.7227 93.7246 -57.7723C95.1331 -57.9896 96.5416 -58.2069 97.9066 -58.373C115.176 -48.1378 133.402 -39.4531 152.296 -32.3883L155.296 -31.277C170.418 -25.4459 186.2 -19.6723 194.728 -6.02593Z" fill="white"/>
<path opacity="0.22" d="M19.3869 27.0291C30.3953 40.7437 39.7667 53.7015 42.1795 73.5602C43.9911 88.737 44.2293 104.431 44.4262 119.653C44.693 139.462 44.9667 159.885 48.9094 179.28C53.4258 201.416 64.1787 221.968 74.6418 241.93C78.1219 248.49 81.721 255.325 84.9847 262.14C96.6536 286.068 104.026 311.459 111.229 336.011C111.577 337.26 111.976 338.55 112.332 339.892C111.422 339.828 110.418 339.773 109.509 339.711C109.186 338.745 108.957 337.771 108.634 336.805C101.491 312.389 94.1778 287.135 82.5684 263.345C79.2613 256.58 75.7136 249.789 72.2347 243.229C61.7109 223.129 50.847 202.397 46.2035 179.894C42.2447 160.311 41.9539 139.701 41.679 119.798C41.4901 104.669 41.2519 88.9762 39.3636 73.9942C37.008 54.793 27.9014 42.144 17.1662 28.8315C10.9183 21.0924 -1.58171 9.3535 -8.63381 10.8665C-9.80196 11.1102 -10.7482 11.7132 -11.6099 12.7348C-12.5149 13.8074 -13.2327 15.3845 -13.8146 17.4231C-14.7019 20.8607 -14.0715 24.7817 -13.5852 28.1472L-5.6868 77.9148C-4.49391 85.526 -4.5719 93.2944 -4.58025 100.773C-4.67473 108.355 -4.70141 116.167 -3.46546 123.727C-0.76695 140.342 4.46037 155.412 12.2696 168.458C25.4548 190.692 43.6647 224.605 49.6309 262.141C51.991 277.081 52.3941 292.475 52.8407 307.299C53.0021 312.917 53.1121 318.492 53.2644 324.017C53.3205 325.195 53.3251 326.33 53.3297 327.466C52.3952 327.122 51.5123 326.82 50.6214 326.424C50.5985 325.622 50.5756 324.819 50.5527 324.016C50.3992 318.491 50.2893 312.917 50.1805 307.341C49.7843 292.561 49.2953 277.268 46.9948 262.464C41.1122 225.348 23.0737 191.751 9.90493 169.705C2.01963 156.333 -3.42138 140.999 -6.15299 124.008C-7.41367 116.167 -7.30087 108.253 -7.2577 100.628C-7.19804 93.1919 -7.15486 85.5681 -8.27973 78.187L-16.1783 28.4202C-16.7839 24.781 -17.439 20.5784 -16.4125 16.5606C-15.1256 11.7155 -12.7126 8.85493 -9.2081 8.12399C2.09566 5.72035 19.2245 26.8066 19.3869 27.0291Z" fill="white"/>
<path opacity="0.22" d="M-29.9888 11.4946C-23.4932 37.198 -19.8839 63.6255 -19.3565 90.1804C-19.2846 94.2445 -19.2988 98.4101 -19.3908 102.773C-19.5616 117.602 -19.7854 132.91 -14.6887 145.956C-11.5573 153.966 -5.987 161.574 -0.484622 168.953C3.41113 174.293 7.51233 179.805 10.6774 185.494C18.3289 199.453 24.8289 213.844 29.9038 228.264C37.3847 249.48 40.8799 274.073 40.202 299.359C39.9878 306.666 39.6878 314.076 39.3798 321.391C38.4889 320.996 37.6401 320.549 36.7488 320.153C37.0469 313.264 37.2855 306.239 37.5323 299.307C38.2873 274.345 34.7733 250.086 27.4117 229.144C22.3962 214.861 16.0073 200.649 8.36397 186.784C5.31 181.276 1.31164 175.849 -2.58411 170.508C-8.14616 162.994 -13.8706 155.256 -17.0781 146.92C-22.362 133.37 -22.163 117.781 -21.9657 102.713C-21.9165 98.4021 -21.851 94.2787 -21.923 90.2134C-22.4704 64.5139 -25.8595 38.9658 -32.0488 14.0404C-31.4538 13.2314 -30.7214 12.363 -29.9888 11.4946Z" fill="white"/>
<path opacity="0.22" d="M128.434 340.099C125.651 323.066 121.294 301.673 112.421 281.383C105.879 266.522 97.7722 252.791 89.8948 239.514C73.2526 211.523 57.602 185.055 57.4806 150.135C57.4428 141.051 57.9982 131.678 58.5902 121.64C60.6309 86.9578 62.8055 51.0812 40.0906 24.3754C32.8752 15.9158 24.3423 8.70669 16.1175 1.75489C10.5631 -2.96812 4.76013 -7.81151 -0.500851 -12.986C-1.17671 -13.6372 -1.86082 -14.3823 -2.60459 -15.2642C-3.26751 -14.6859 -3.98173 -14.1504 -4.64453 -13.5721C-3.84946 -12.6474 -3.10581 -11.7654 -2.37853 -11.0714C2.98517 -5.8111 8.74498 -0.916667 14.3938 3.79813C22.5673 10.7071 31.0489 17.8733 38.0591 26.1614C60.1327 52.0711 58.0039 87.3758 55.9644 121.537C55.3724 131.575 54.7735 140.999 54.8628 150.126C54.9991 185.754 70.8638 212.488 87.6332 240.847C95.5014 254.031 103.557 267.718 110.039 282.442C118.727 302.228 123.05 323.244 125.773 340.141L128.434 340.099Z" fill="white"/>
<path opacity="0.22" d="M-40.6166 25.3408C-37.336 39.9173 -35.0531 55.0538 -33.9134 70.7159C-33.1651 80.3056 -33.6858 89.5331 -34.1451 98.3768C-35.2249 118.019 -36.2582 136.568 -23.6472 156.059C-19.9587 161.75 -15.72 167.202 -11.6352 172.526C-7.13154 178.288 -2.51687 184.228 1.4184 190.56C24.8778 227.897 29.2436 271.582 27.0001 315.322C26.1519 314.875 25.2522 314.386 24.3958 313.845C26.4304 270.975 22.0097 228.289 -0.843475 191.893C-4.71919 185.698 -9.28257 179.8 -13.778 174.132C-17.9139 168.766 -22.2039 163.27 -25.9953 157.494C-39.0502 137.284 -38.05 118.359 -36.917 98.2401C-36.4064 89.4386 -35.9204 80.3569 -36.6522 70.9539C-37.7524 56.2828 -39.7639 42.0692 -42.7812 28.3217C-42.0139 27.3083 -41.3409 26.3032 -40.6166 25.3408Z" fill="white"/>
<path opacity="0.22" d="M137.578 339.634C136.972 335.996 136.47 332.442 135.915 328.846C132.928 308.943 129.788 288.39 122.489 269.241C120.064 262.778 116.923 255.196 112.32 248.307C109.348 243.738 105.689 239.465 102.142 235.373C75.3136 204.102 64.76 165.262 70.6746 119.973C71.3617 114.801 72.2206 109.426 73.1046 104.332C75.7602 88.5284 78.4157 72.2045 75.6972 56.4433C70.2418 25.2539 46.4412 7.30403 21.255 -11.8029C16.5635 -15.3704 11.8206 -18.9808 7.16406 -22.6933C7.97276 -23.2371 8.68699 -23.7726 9.45262 -24.2651C13.8525 -20.767 18.3898 -17.328 22.8759 -13.9319C47.3951 4.6179 72.7359 23.8536 78.3688 55.974C81.2225 72.1977 78.4455 88.7676 75.8071 104.759C74.9231 109.853 74.0551 115.135 73.368 120.306C67.5255 164.785 77.9268 202.975 104.225 233.629C107.78 237.816 111.44 242.088 114.565 246.786C119.33 253.897 122.531 261.618 125.015 268.217C132.434 287.64 135.59 308.38 138.543 328.428C139.106 332.119 139.616 335.766 140.274 339.447L137.578 339.634Z" fill="white"/>
<path opacity="0.22" d="M203.621 -26.111C208.685 -21.014 211.179 -12.6642 213.395 -5.3314C213.997 -3.34864 214.549 -1.40882 215.178 0.334972C218.186 9.11337 221.43 19.4806 222.628 30.4045C224.419 46.4358 221.296 61.2378 213.766 71.9279C210.385 76.7655 206.294 81.0973 202.331 85.2765C191.451 96.8255 182.052 106.825 188.595 123.863C202.376 159.913 208.37 199.385 205.905 237.891L205.784 240.315C205.334 246.555 204.944 252.931 206.142 258.98C207.323 264.841 210.103 270.468 212.762 275.822L213.922 278.182C219.155 288.992 223.666 300.242 227.248 311.763C226.431 312.213 225.665 312.706 224.849 313.156C221.257 301.541 216.781 290.144 211.497 279.293L210.337 276.933C207.567 271.399 204.728 265.634 203.513 259.398C202.187 252.981 202.657 246.409 203.047 240.033L203.21 237.557C205.615 199.437 199.662 160.433 186.051 124.699C178.939 106.055 189.388 95.0166 200.355 83.3652C204.231 79.2885 208.28 75.0079 211.532 70.3229C218.674 60.0942 221.623 46.0165 219.932 30.5917C218.759 19.9498 215.575 9.71935 212.583 1.1289C211.954 -0.614892 211.351 -2.59777 210.792 -4.63167C208.653 -11.6397 206.233 -19.6648 201.64 -24.2821C189.271 -36.695 169.187 -44.3187 152.993 -50.4352L151.417 -51.0552C146.84 -52.7867 142.021 -54.5446 136.963 -56.329C133.672 -57.5098 130.328 -58.7335 126.934 -60C129.792 -59.9647 132.649 -59.9294 135.524 -59.7063C136.312 -59.3963 137.101 -59.0863 137.933 -58.8273C143.042 -57.0001 147.86 -55.2422 152.49 -53.4678L154.066 -52.8478C170.413 -46.6027 190.84 -38.8668 203.621 -26.111Z" fill="white"/>
<path opacity="0.22" d="M223.189 -34.0621C225.137 -31.3918 226.912 -28.5171 228.524 -25.3441C235.346 -12.1646 238.754 2.77925 241.413 15.7057C244.132 28.769 246.642 42.7024 244.802 56.3996C242.82 71.1971 235.733 83.1253 224.333 90.9335L224.016 91.1032C213.064 98.588 205.208 103.957 204.018 118.024C203.123 128.939 206.58 139.572 210.44 150.454L212.583 156.42C220.678 178.672 228.986 201.708 226.647 225.435C226.169 229.737 225.451 234.011 224.629 238.201C223.501 244.31 222.346 250.658 222.376 256.951C222.475 273.223 230.235 288.404 237.763 303.132C237.993 303.585 238.275 304.08 238.462 304.585C237.748 305.12 236.982 305.614 236.217 306.106C235.926 305.516 235.637 304.926 235.347 304.336C227.656 289.386 219.726 273.889 219.664 256.95C219.617 250.47 220.807 243.976 221.927 237.773C222.662 233.686 223.475 229.403 223.867 225.204C226.169 202.143 217.886 179.388 209.953 157.359L207.81 151.392C203.78 140.194 200.247 129.238 201.29 117.835C202.56 102.53 211.318 96.6094 222.4 88.9721L222.667 88.759C233.438 81.3848 240.154 70.1036 242.014 56.0739C243.793 42.7611 241.307 29.1096 238.656 16.277C235.962 3.49549 232.578 -11.1665 225.97 -24.0807C223.387 -29.1096 220.389 -33.4399 217.106 -37.2246C217.208 -37.1388 217.354 -37.1041 217.456 -37.0184L223.189 -34.0621Z" fill="white"/>
<path opacity="0.22" d="M245.662 -19.3096C256.692 5.47857 261.922 27.6004 261.585 48.124C261.177 69.4588 255.004 85.2838 242.674 96.5799C240.866 98.2042 238.912 99.7943 237.001 101.333C231.622 105.635 226.604 109.717 224.129 115.659C221.463 122.139 222.682 129.511 224.21 137.141C228.044 155.834 232.649 174.649 237.787 193.04L238.119 194.1C240.46 202.321 242.816 210.73 242.486 219.42C242.355 222.793 241.829 226.009 241.303 229.226C240.9 231.675 240.505 234.219 240.299 236.745C238.622 255.538 247.796 273.294 256.964 290.435C256.301 291.013 255.596 291.642 254.881 292.178C245.38 274.498 235.83 256.255 237.613 236.505C237.862 233.927 238.249 231.29 238.695 228.791C239.23 225.668 239.755 222.451 239.861 219.317C240.18 211.055 237.839 202.833 235.566 194.842L235.279 193.732C229.994 175.306 225.432 156.44 221.591 137.652C219.935 129.655 218.726 121.857 221.617 114.694C224.327 108.164 229.878 103.657 235.301 99.3045C237.168 97.8169 239.122 96.2267 240.887 94.6526C252.648 83.9271 258.545 68.7411 258.924 48.1661C259.289 26.8828 253.497 3.76873 241.294 -22.4321L241.397 -22.3464L245.662 -19.3096Z" fill="white"/>
<path opacity="0.22" d="M260.094 -7.26562L264.663 -2.93015C270.722 12.3983 276.067 28.2623 277.529 44.8901C279.671 68.7005 272.749 90.0806 258.652 103.471C257.334 104.722 255.966 105.931 254.546 107.095C251.137 109.995 247.909 112.784 245.708 116.43C239.682 126.374 243.334 135.427 247.172 144.985C248.449 148.14 249.786 151.432 250.796 154.799C255.793 171.593 258.026 188.863 257.409 206.192C257.269 209.471 257.078 212.706 256.843 215.992C256.408 222.94 255.903 230.179 256.471 237.182C257.684 251.512 263.208 265.088 269.498 278.172C268.895 278.887 268.146 279.568 267.491 280.24C260.962 266.609 255.011 252.502 253.775 237.368C253.19 230.178 253.687 222.845 254.115 215.804C254.307 212.569 254.498 209.333 254.689 206.098C255.33 189.051 253.123 172.062 248.149 155.55C247.199 152.32 245.87 149.122 244.594 145.967C240.644 136.229 236.516 126.082 243.257 115.082C245.665 111.086 249.204 108.033 252.613 105.133C253.938 103.977 255.359 102.812 256.634 101.612C270.205 88.741 276.772 68.1959 274.704 45.2306C273.282 26.8953 266.853 9.51665 260.094 -7.26562Z" fill="white"/>
<path opacity="0.22" d="M281.885 15.9707L286.294 21.74C288.429 29.7898 290.187 37.8724 291.146 46.0718C294.034 70.2432 288.411 92.8831 275.614 108.054C274.286 109.732 272.804 111.281 271.374 112.872C265.085 119.809 258.623 126.951 259.847 135.459C260.401 139.055 262.364 142.433 264.319 145.718L265.206 147.156C276.982 167.43 281.592 192.256 277.772 215.355C277.333 217.948 276.809 220.645 276.225 223.204C274.925 229.518 273.598 236.071 273.876 242.484C274.217 250.69 277.143 258.529 280.688 265.84C280.086 266.554 279.439 267.321 278.793 268.088C274.863 260.194 271.544 251.679 271.172 242.576C270.861 235.788 272.266 229.04 273.601 222.581C274.134 219.978 274.666 217.377 275.104 214.783C278.837 192.307 274.422 168.079 262.885 148.352L262.048 146.958C259.983 143.493 257.858 139.891 257.254 135.731C255.829 126.01 262.773 118.401 269.45 111.004C270.88 109.413 272.267 107.872 273.602 106.289C285.926 91.6803 291.331 69.816 288.502 46.3019C287.275 36.1379 284.957 26.0214 281.885 15.9707Z" fill="white"/>
<path opacity="0.22" d="M298.436 40.231L302.24 47.2363C302.836 51.3023 303.337 55.3761 303.787 59.4073C305.31 73.4747 300.074 91.301 288.362 112.341C287.663 113.584 286.964 114.829 286.178 116.176C283.071 121.416 279.548 127.355 278.937 132.851C278.326 138.347 280.654 145.338 282.719 151.502C283.432 153.663 284.138 155.732 284.637 157.63L285.324 160.031C289.955 176.43 294.729 193.385 292.019 210.708C291.588 213.396 290.97 216.1 290.437 218.702C289.549 222.661 288.632 226.858 288.37 230.904C288.012 237.657 289.441 244.158 291.892 250.382C291.305 251.284 290.718 252.188 290.08 253.048C287.169 245.918 285.331 238.552 285.735 230.707C285.973 226.38 286.932 222.131 287.856 218.027C288.44 215.468 289.015 212.815 289.358 210.229C291.932 193.486 287.275 176.806 282.721 160.73L282.034 158.329C281.491 156.483 280.838 154.457 280.081 152.347C277.948 145.953 275.501 138.687 276.2 132.568C276.856 126.5 280.499 120.314 283.779 114.869C284.521 113.574 285.315 112.322 285.972 111.129C297.441 90.5834 302.538 73.3369 301.065 59.8344C300.495 53.3518 299.59 46.8516 298.436 40.231Z" fill="white"/>
<path opacity="0.22" d="M305.775 225.933C305.108 219.981 305.222 214.244 305.414 208.311C305.506 203.948 305.633 199.441 305.417 194.821C304.589 178.375 301.828 162.664 297.165 148.066C296.893 147.143 296.519 146.135 296.196 145.169C293.953 138.596 291.489 131.143 294.122 124.287C295.715 120.22 298.364 116.251 300.926 112.383C302.687 109.674 304.369 107.161 305.717 104.63C310.606 95.3058 313.309 85.4631 314.452 75.1865C315.098 77.1184 315.743 79.0502 316.346 81.0333C314.909 89.5831 312.262 97.9074 308.106 105.842C306.724 108.518 304.913 111.184 303.196 113.842C300.719 117.607 298.156 121.475 296.685 125.295C294.398 131.22 296.726 138.213 298.834 144.324C299.209 145.333 299.532 146.298 299.855 147.264C304.628 162.042 307.414 178.035 308.259 194.668C308.483 199.382 308.364 203.984 308.229 208.398C308.128 212.666 308.011 216.747 308.238 220.94L305.775 225.933Z" fill="white"/>
<path opacity="0.22" d="M321.774 176.785C320.239 169.062 318.282 161.423 315.861 153.918L315.003 151.201C312.795 144.482 310.569 137.576 310.74 130.319C311.015 120.451 314.839 111.457 318.551 102.803C319.217 101.183 319.884 99.5636 320.592 97.8926C320.966 99.4223 321.243 100.96 321.573 102.54C321.417 102.933 321.218 103.376 321.062 103.768C317.428 112.225 313.725 120.972 313.453 130.321C313.284 137.056 315.45 143.825 317.59 150.312L318.448 153.03C320.215 158.509 321.698 164.013 323.001 169.626L321.774 176.785Z" fill="white"/>
<path opacity="0.22" d="M14.0878 56.5517C11.8679 55.6564 9.59294 55.76 7.87283 56.7613C4.5272 58.7558 4.14346 63.0489 4.13281 66.1745C4.15801 78.9035 5.65951 91.6473 8.6474 103.978C10.8985 113.342 16.0799 119.234 21.4549 118.672C23.2924 118.464 24.8319 117.572 26.0815 116.092C28.3222 113.435 29.6422 108.966 29.791 103.084C30.1123 89.425 26.9143 75.7882 20.5613 63.6082C19.4782 61.5727 18.13 59.2285 15.9384 57.5734C15.3817 57.1964 14.7306 56.8273 14.0878 56.5517ZM18.1967 64.8554C24.3708 76.6242 27.433 89.7998 27.1218 103.032C26.9246 110.527 24.5722 115.702 21.1804 116.092C17.8831 116.473 13.4172 112.223 11.3101 103.414C8.33878 91.2726 6.81071 78.7679 6.80201 66.2257C6.80911 64.1424 6.99863 61.428 8.33444 59.8447C8.59301 59.5383 8.90288 59.2752 9.26405 59.0542C10.3048 58.4425 11.6866 58.4642 13.1611 58.9984C13.6067 59.1966 14.0093 59.446 14.4632 59.7376C16.0982 61.0145 17.2759 63.0421 18.1967 64.8554Z" fill="white"/>
<path opacity="0.22" d="M83.6825 301.963L83.97 303.075C87.26 315.048 90.6541 326.584 94.0746 337.882C93.1127 337.778 92.144 337.577 91.1752 337.378C87.8382 326.498 84.6158 315.278 81.4106 303.723L81.0705 302.569C75.9014 283.282 71.8476 278.855 69.342 278.505C67.5144 278.285 65.6787 280.669 64.5725 282.706C62.5525 286.243 62.9327 290.564 63.5591 295.526L68.4122 332.307C67.4858 332.056 66.5593 331.805 65.5825 331.512L60.8806 295.902C60.3275 291.784 59.5832 286.028 62.225 281.443C64.5393 277.455 67.0861 275.577 69.7291 275.868C76.0857 276.735 80.5117 290.265 83.6825 301.963Z" fill="white"/>
</g>
</g>
<defs>
<clipPath id="clip0_383_443">
<rect width="940" height="930" fill="white"/>
</clipPath>
</defs>
</svg>
