<svg width="12" height="12" viewBox="0 0 12 12" fill="none" xmlns="http://www.w3.org/2000/svg">
<path fill-rule="evenodd" clip-rule="evenodd" d="M3.2002 1.09116C3.68265 1.05264 4.14065 0.862883 4.50897 0.548904C4.92498 0.194592 5.45356 0 6 0C6.54644 0 7.07502 0.194592 7.49103 0.548904C7.85935 0.862883 8.31735 1.05264 8.7998 1.09116C9.34463 1.13471 9.85614 1.37089 10.2426 1.75737C10.6291 2.14386 10.8653 2.65537 10.9088 3.2002C10.9471 3.68246 11.1368 4.14072 11.4511 4.50897C11.8054 4.92498 12 5.45356 12 6C12 6.54644 11.8054 7.07502 11.4511 7.49103C11.1371 7.85935 10.9474 8.31735 10.9088 8.7998C10.8653 9.34463 10.6291 9.85614 10.2426 10.2426C9.85614 10.6291 9.34463 10.8653 8.7998 10.9088C8.31735 10.9474 7.85935 11.1371 7.49103 11.4511C7.07502 11.8054 6.54644 12 6 12C5.45356 12 4.92498 11.8054 4.50897 11.4511C4.14065 11.1371 3.68265 10.9474 3.2002 10.9088C2.65537 10.8653 2.14386 10.6291 1.75737 10.2426C1.37089 9.85614 1.13471 9.34463 1.09116 8.7998C1.05264 8.31735 0.862883 7.85935 0.548904 7.49103C0.194592 7.07502 0 6.54644 0 6C0 5.45356 0.194592 4.92498 0.548904 4.50897C0.862883 4.14065 1.05264 3.68265 1.09116 3.2002C1.13471 2.65537 1.37089 2.14386 1.75737 1.75737C2.14386 1.37089 2.65537 1.13471 3.2002 1.09116ZM8.7803 5.03023C8.91692 4.88878 8.99252 4.69932 8.99081 4.50267C8.9891 4.30602 8.91022 4.11791 8.77116 3.97885C8.6321 3.83979 8.44399 3.76091 8.24734 3.7592C8.05069 3.7575 7.86123 3.83309 7.71978 3.96971L5.24999 6.43951L4.28022 5.46974C4.13877 5.33312 3.94931 5.25752 3.75266 5.25923C3.55601 5.26094 3.3679 5.33982 3.22884 5.47888C3.08978 5.61794 3.0109 5.80605 3.00919 6.0027C3.00748 6.19935 3.08308 6.38881 3.2197 6.53026L4.71973 8.03029C4.86038 8.17089 5.05111 8.24988 5.24999 8.24988C5.44886 8.24988 5.6396 8.17089 5.78025 8.03029L8.7803 5.03023Z" fill="#34D399"/>
</svg>
