<svg width="26" height="26" viewBox="0 0 26 26" fill="none" xmlns="http://www.w3.org/2000/svg">
<circle cx="13" cy="13" r="12" stroke="#B8BEC6" stroke-width="2"/>
<path fill-rule="evenodd" clip-rule="evenodd" d="M8.29279 11.293C8.48031 11.1055 8.73462 11.0002 8.99979 11.0002C9.26495 11.0002 9.51926 11.1055 9.70679 11.293L12.9998 14.586L16.2928 11.293C16.385 11.1974 16.4954 11.1213 16.6174 11.0689C16.7394 11.0164 16.8706 10.9889 17.0034 10.9877C17.1362 10.9866 17.2678 11.0119 17.3907 11.0621C17.5136 11.1124 17.6253 11.1867 17.7192 11.2806C17.8131 11.3745 17.8873 11.4861 17.9376 11.609C17.9879 11.7319 18.0132 11.8636 18.012 11.9964C18.0109 12.1291 17.9833 12.2604 17.9309 12.3824C17.8785 12.5044 17.8023 12.6147 17.7068 12.707L13.7068 16.707C13.5193 16.8944 13.265 16.9997 12.9998 16.9997C12.7346 16.9997 12.4803 16.8944 12.2928 16.707L8.29279 12.707C8.10532 12.5194 8 12.2651 8 12C8 11.7348 8.10532 11.4805 8.29279 11.293Z" fill="#B8BEC6"/>
</svg>
