<svg width="16" height="16" viewBox="0 0 16 16" fill="none" xmlns="http://www.w3.org/2000/svg">
<path d="M3.21976 0C3.58776 0 3.88676 0.298 3.88676 0.667V1.333H11.6548C12.7518 1.333 13.3618 2.572 12.7438 3.436L12.6668 3.534L10.5528 6L12.6658 8.466C13.3798 9.299 12.8358 10.569 11.7778 10.662L11.6538 10.667L3.88576 10.666V15.333C3.88576 15.701 3.58776 16 3.21876 16C2.84976 16 2.55176 15.702 2.55176 15.333V0.667C2.55176 0.299 2.84976 0 3.21876 0H3.21976ZM11.6538 2.667H3.88576V9.334H11.6538L8.79676 6L11.6538 2.667Z" fill="#777E90"/>
</svg>
