<svg width="3" height="6" viewBox="0 0 3 6" fill="none" xmlns="http://www.w3.org/2000/svg">
<path fill-rule="evenodd" clip-rule="evenodd" d="M0.146404 5.82411C0.0526614 5.71145 -4.38255e-07 5.55867 -4.24329e-07 5.39938C-4.10403e-07 5.24008 0.0526615 5.0873 0.146404 4.97465L1.79302 2.99637L0.146404 1.0181C0.0553183 0.904797 0.00491784 0.753046 0.00605702 0.595531C0.00719644 0.438017 0.0597844 0.28734 0.152495 0.175956C0.245206 0.0645721 0.370621 0.00139213 0.501729 2.31466e-05C0.632836 -0.00134536 0.759146 0.0592068 0.853454 0.168639L2.8536 2.57164C2.94734 2.6843 3 2.83708 3 2.99637C3 3.15567 2.94734 3.30845 2.8536 3.4211L0.853454 5.82411C0.759683 5.93673 0.63252 6 0.499929 6C0.367337 6 0.240174 5.93673 0.146404 5.82411Z" fill="#666666"/>
</svg>
