<svg width="40" height="40" viewBox="0 0 40 40" fill="none" xmlns="http://www.w3.org/2000/svg">
<circle cx="20" cy="20" r="19.5" fill="white" stroke="#E6E8EC"/>
<path d="M24.053 17.0945L25.9715 17.2415C27.4565 17.3975 28.64 18.4505 28.8185 20.006C28.9205 20.8925 29.0015 22.172 29.0015 24.0005L28.8185 27.995C28.6415 29.549 27.4595 30.6035 25.9745 30.7595C24.794 30.884 22.9115 31.001 20.0015 31.001C17.0915 31.001 15.209 30.884 14.0285 30.7595C12.5435 30.6035 11.3615 29.549 11.1845 27.995C11.081 27.1085 11 25.829 11 24.0005L11.183 20.006C11.3615 18.4505 12.545 17.3975 14.0285 17.2415L15.947 17.0945C16.499 17.0645 16.97 17.489 16.9985 18.0395C17.027 18.59 16.604 19.0625 16.0535 19.091L14.2385 19.229C13.613 19.295 13.232 19.679 13.169 20.2325C13.079 21.026 12.9995 22.2275 12.9995 23.999L13.169 27.7655C13.232 28.319 13.6115 28.703 14.2355 28.769C15.3305 28.886 17.1395 29 20 29L25.763 28.769C26.387 28.703 26.7665 28.3205 26.8295 27.7655C26.9195 26.972 26.999 25.7705 26.999 23.999L26.8295 20.2325C26.7665 19.679 26.3855 19.295 25.76 19.229L23.945 19.091C23.393 19.061 22.97 18.59 23 18.0395C23.03 17.489 23.501 17.0645 24.0515 17.0945H24.053ZM20.7065 9.29299L24.206 12.7925C24.596 13.1825 24.596 13.8155 24.206 14.207C23.816 14.5985 23.183 14.597 22.7915 14.207L21.0005 12.4145V22.001C21.0005 22.553 20.5535 23.0015 20 23.0015C19.4465 23.0015 18.9995 22.5545 18.9995 22.001V12.4145L17.207 14.207C16.817 14.597 16.184 14.597 15.7925 14.207C15.401 13.817 15.4025 13.184 15.7925 12.7925L19.2935 9.29299C19.6835 8.90299 20.3165 8.90299 20.708 9.29299H20.7065Z" fill="#777E90"/>
</svg>
