<svg width="40" height="40" viewBox="0 0 40 40" fill="none" xmlns="http://www.w3.org/2000/svg">
<circle cx="20" cy="20" r="19.5" fill="white" stroke="#E6E8EC"/>
<path fill-rule="evenodd" clip-rule="evenodd" d="M14.736 13C12.657 13 10.5 14.88 10.5 17.514C10.5 20.621 12.824 23.474 15.361 25.634C16.7802 26.833 18.3089 27.896 19.927 28.809L20 28.85L20.073 28.81C20.344 28.657 20.734 28.43 21.203 28.136C22.143 27.548 23.393 26.695 24.639 25.634C27.176 23.474 29.5 20.621 29.5 17.514C29.5 14.88 27.343 13 25.264 13C23.158 13 21.463 14.389 20.711 16.643C20.661 16.792 20.5655 16.9215 20.4379 17.0132C20.3103 17.1049 20.1571 17.1543 20 17.1543C19.8429 17.1543 19.6897 17.1049 19.5621 17.0132C19.4345 16.9215 19.339 16.792 19.289 16.643C18.537 14.389 16.841 13 14.736 13ZM20 29.703L20.343 30.37C20.2369 30.4246 20.1193 30.453 20 30.453C19.8807 30.453 19.7631 30.4246 19.657 30.37L20 29.703ZM9 17.513C9 14.053 11.829 11.5 14.736 11.5C17.03 11.5 18.881 12.726 20 14.605C21.12 12.726 22.97 11.5 25.264 11.5C28.17 11.5 31 14.052 31 17.514C31 21.332 28.199 24.574 25.611 26.776C23.9928 28.1428 22.2394 29.341 20.378 30.352L20.353 30.365L20.346 30.368L20.344 30.369L20 29.703L19.657 30.37L19.654 30.368L19.647 30.365L19.622 30.352C19.0714 30.0547 18.5305 29.7399 18 29.408C16.7349 28.6182 15.5281 27.7387 14.389 26.776C11.8 24.573 9 21.332 9 17.514V17.513Z" fill="#777E90"/>
</svg>
