<svg width="503" height="390" viewBox="0 0 503 390" fill="none" xmlns="http://www.w3.org/2000/svg">
<g opacity="0.22">
<path opacity="0.22" d="M0.438184 238.046C0.326689 251.744 1.59654 265.502 7.61323 276.763C13.0614 287.001 20.9539 295.779 28.6964 304.211C36.3201 312.654 44.2021 321.312 49.8335 331.595C56.977 344.782 59.9385 359.403 62.8584 373.554C65.0874 384.609 67.3578 396.136 71.7579 406.704C73.1177 409.919 74.4774 413.134 75.8477 416.466C79.317 424.616 82.7425 432.948 85.7574 441.376C84.0035 439.802 82.2494 438.229 80.4955 436.655C78.1425 430.313 75.4334 424.002 72.7992 417.863C71.4289 414.529 70.0046 411.261 68.6448 408.047C64.1593 397.188 61.8243 385.607 59.5746 374.316C56.7942 360.392 53.8536 346.006 46.9351 333.336C41.5181 323.451 33.7652 314.9 26.2164 306.629C18.3989 298.025 10.3128 289.085 4.65011 278.449C2.93403 275.265 1.60762 271.75 0.51875 268.214C-0.137301 258.035 -0.178755 248.038 0.438184 238.046Z" fill="white"/>
<path opacity="0.22" d="M227.74 84.8242C244.542 98.3012 254.222 121.266 253.672 146.312C253.414 158.357 250.752 170.254 248.23 181.723C247.496 184.941 246.826 188.213 246.157 191.486C239.068 225.85 237.664 260.91 241.861 295.719C243.75 311.745 247.706 319.316 253.175 329.791C255.406 334.061 257.936 339.018 260.689 345.147C263.592 351.62 266.743 358.191 269.754 364.536C274.728 374.816 279.915 385.494 284.045 396.385C295.118 425.002 300.344 455.854 305.305 485.717C305.97 489.885 306.7 494.106 307.432 498.328C306.319 498.604 305.206 498.879 304.083 499.037C303.342 494.697 302.612 490.474 301.882 486.253C296.941 456.626 291.791 425.946 280.867 397.672C276.694 386.965 271.571 376.341 266.598 366.06C263.587 359.716 260.316 353.156 257.468 346.618C254.779 340.544 252.259 335.704 250.029 331.434C244.41 320.614 240.433 312.806 238.373 296.202C234.144 261.037 235.636 225.612 242.693 190.894C243.363 187.621 244.098 184.404 244.822 181.067C247.353 169.717 249.909 157.948 250.197 146.257C250.775 122.221 241.546 100.288 225.519 87.4579C223.01 85.4739 220.286 83.7469 217.614 81.9557L215.397 80.5417C199.017 69.8254 184.156 56.6557 169.93 43.9067C162.527 37.2898 154.864 30.4572 147.008 24.1178C148.099 23.6062 149.246 23.0304 150.467 22.6265C157.946 28.7606 165.156 35.2158 172.227 41.4452C186.441 54.076 201.174 67.138 217.369 77.8107L219.589 79.2246C222.313 80.9516 225.102 82.7325 227.74 84.8242Z" fill="white"/>
<path opacity="0.22" d="M30.2696 133.018C32.0033 150.009 31.9372 166.264 29.9314 181.556C28.9314 189.915 26.7668 197.961 24.6461 205.823C19.6935 224.348 14.9494 241.843 25.4708 261.461C30.8441 271.528 39.2346 279.846 47.3564 287.829C54.4346 294.832 61.7065 301.995 67.1821 310.506C73.5595 320.427 77.3635 331.701 81.0177 342.633C84.3407 352.521 88.2782 362.595 92.4512 373.302C104.179 403.231 116.227 434.085 115.822 464.178C114.68 463.443 113.539 462.71 112.451 461.912C112.312 433.117 100.66 403.359 89.3277 374.526C85.1547 363.818 81.1526 353.691 77.8192 343.684C74.1859 332.99 70.5215 321.941 64.3482 312.299C59.0224 304.133 51.8797 297.077 44.9952 290.236C36.6797 282.092 28.0954 273.614 22.4432 263.094C11.397 242.272 16.2723 224.229 21.3459 205.04C23.423 197.359 25.5333 189.378 26.554 181.254C28.2407 167.775 28.4938 153.647 27.3034 138.752C28.3791 136.694 29.292 134.829 30.2696 133.018Z" fill="white"/>
<path opacity="0.22" d="M211.942 105.899C223.373 127.7 228.182 151.089 226.539 177.301C225.582 192.265 223.632 206.838 221.642 220.938C218.089 246.543 214.714 270.763 217.365 297.494C219.545 319.564 230.511 335.394 242.09 352.064C245.58 357.057 249.146 362.222 252.56 367.698C269.382 394.327 277.026 425.444 281.779 449.552C282.947 455.343 284.06 461.199 285.238 467.107C287.423 478.344 289.629 489.819 292.063 501.153C290.939 501.311 289.816 501.469 288.693 501.625C286.261 490.29 284.065 478.935 281.879 467.698C280.766 461.842 279.653 455.988 278.485 450.197C273.753 426.325 266.269 395.67 249.726 369.493C246.324 364.135 242.757 358.969 239.331 354.029C227.474 336.908 216.304 320.798 214.05 297.902C211.422 270.751 214.723 246.36 218.372 220.508C220.308 206.472 222.333 192.071 223.237 177.172C224.814 151.561 220.174 128.752 209.033 107.521C197.022 84.5807 180.038 73.798 158.562 60.2516L153.813 57.2723C143.548 50.7852 133.653 43.7304 124.127 36.1078C125.144 35.4241 126.171 34.8586 127.198 34.293C136.327 41.4741 145.771 48.1517 155.538 54.4438L160.287 57.4231C182.206 71.2287 199.503 82.1627 211.942 105.899Z" fill="white"/>
<path opacity="0.22" d="M25.9595 342.54C30.583 350.888 30.8367 361.935 30.7134 372.778C29.5118 370.681 28.3642 368.519 27.3355 366.347C27.2124 358.144 26.3975 350.24 23.0506 344.163C20.9159 340.301 17.4933 337.445 13.8332 334.609C13.1919 332.76 12.5402 330.793 11.9531 328.879C12.6635 329.472 13.4926 330.055 14.2029 330.648C18.6275 334.013 23.1813 337.485 25.9595 342.54Z" fill="white"/>
<path opacity="0.22" d="M267.896 73.3538C286.661 90.7668 295.353 118.163 290.012 143.149C288.409 150.788 285.643 158.111 282.856 165.199C282.071 167.171 281.353 169.198 280.568 171.17C263.857 216.549 260.395 266.311 270.492 315.13C274.953 336.586 284.326 357.434 293.335 377.542C298.915 389.972 304.646 402.746 309.19 415.623C316.352 435.83 318.19 457.395 319.899 478.197C320.377 483.631 320.812 489.248 321.353 494.735C320.242 495.012 319.193 495.34 318.08 495.616C317.452 489.838 316.954 484.167 316.456 478.496C314.702 457.877 312.95 436.602 305.937 416.738C301.468 404.033 295.739 391.259 290.222 378.884C281.138 358.604 271.69 337.583 267.144 315.838C256.876 266.439 260.405 216.077 277.42 170.076C278.14 168.049 278.924 166.077 279.708 164.103C282.387 157.145 285.098 149.885 286.668 142.547C291.692 118.719 283.406 92.5379 265.481 75.8256C255.711 66.7957 243.677 60.5818 231.963 54.6373C227.826 52.4977 223.506 50.3145 219.358 48.0565C210.804 43.3252 203.117 37.5661 195.505 31.9792C190.768 28.4631 185.902 24.8395 180.948 21.5804C177.394 19.2709 174.078 16.9406 170.762 14.6104C172.101 14.1962 173.442 13.782 174.716 13.314C177.332 15.1694 180.004 16.9606 182.793 18.7415C187.876 22.1084 192.742 25.7322 197.48 29.2481C204.962 34.7273 212.649 40.4864 220.89 45.0664C224.984 47.3884 229.24 49.5178 233.431 51.5933C245.456 57.6892 257.74 64.0006 267.896 73.3538Z" fill="white"/>
<path opacity="0.22" d="M326.85 115.005C327.771 132.959 322.536 152.342 311.776 170.835C309.908 174.094 308.128 176.986 306.402 179.815C298.294 193.079 292.444 202.754 291.325 220.647C290.117 239.56 290.202 258.896 291.637 277.936C294.638 318.862 304.864 365.052 320.53 407.792C322.829 414.198 325.495 420.692 328.021 426.96C333.447 440.356 339.099 454.267 342.341 468.685C343.702 474.638 344.717 480.74 345.432 486.807C344.393 487.256 343.29 487.649 342.189 488.042C341.454 481.738 340.484 475.454 339.112 469.383C335.835 455.265 330.313 441.461 324.962 428.238C322.436 421.97 319.771 415.475 317.406 409.015C301.709 365.921 291.344 319.507 288.311 278.226C286.92 259.003 286.825 239.549 288.023 220.519C289.188 201.787 295.201 191.92 303.569 178.216C305.241 175.452 307.074 172.496 308.889 169.301C319.333 151.311 324.393 132.658 323.47 115.359C322.438 95.4506 313.249 77.3828 298.8 66.8555C290.36 60.686 280.172 57.1085 270.286 53.5644C268.432 52.8925 266.578 52.2207 264.724 51.5488C237.278 41.5574 211.25 27.2763 187.736 9.62185C189.142 9.26155 190.481 8.8474 191.95 8.54102C214.667 25.3124 239.673 38.8493 265.943 48.4072C267.798 49.0791 269.651 49.7509 271.506 50.4228C281.575 54.0105 292.075 57.7392 300.894 64.1141C316.041 75.1161 325.853 94.1416 326.85 115.005Z" fill="white"/>
<path opacity="0.22" d="M341.697 68.8362C349.705 81.6501 350.537 97.2311 351.278 111.094C352.427 131.647 352.479 151.284 341.353 166.298C338.415 170.304 334.82 173.651 331.28 176.936C328.075 179.952 324.761 183.098 322.018 186.61C308.011 204.911 311.397 225.031 315.069 246.376C315.64 249.481 316.149 252.532 316.602 255.647C317.488 261.64 318.612 267.613 319.616 273.596C322.634 290.892 325.768 308.833 325.632 326.342L325.661 327.352C325.493 345.163 325.321 363.628 328.5 381.386C331.063 395.567 337.206 407.59 343.65 420.302C345.237 423.378 346.759 426.4 348.291 429.54C355.945 445.122 361.166 461.63 365.179 478.007C364.153 478.572 363.115 479.019 362.023 479.531C358.064 463.091 352.843 446.583 345.254 431.054C343.785 427.968 342.198 424.892 340.676 421.871C334.093 408.932 327.81 396.683 325.205 382.029C321.942 363.982 322.103 345.398 322.315 327.405L322.286 326.396C322.453 309.239 319.33 291.418 316.323 274.241C315.253 268.203 314.183 262.166 313.297 256.173C312.789 253.122 312.335 250.007 311.764 246.901C308.177 225.847 304.463 204.029 319.446 184.572C322.286 180.813 325.772 177.593 329.086 174.448C332.454 171.239 335.995 167.955 338.716 164.206C349.203 150.08 349.083 131.045 348.051 111.137C347.351 97.7464 346.497 82.584 338.971 70.5019C328.934 54.353 309.638 47.2235 290.957 40.2786L287.119 38.8269C261.875 29.3583 237.629 17.66 214.686 3.76515C216.457 3.49199 218.228 3.21871 219.944 3.00977C241.661 15.8806 264.58 26.8015 288.339 35.6855L292.112 37.0831C311.127 44.4157 330.973 51.6759 341.697 68.8362Z" fill="white"/>
<path opacity="0.22" d="M121.206 110.403C135.049 127.649 146.834 143.943 149.868 168.916C152.146 188.001 152.446 207.736 152.693 226.878C153.029 251.787 153.373 277.469 158.331 301.858C164.01 329.695 177.532 355.539 190.689 380.641C195.066 388.89 199.591 397.484 203.695 406.054C218.369 436.144 227.64 468.073 236.698 498.948C237.135 500.518 237.636 502.14 238.084 503.828C236.941 503.747 235.678 503.679 234.535 503.6C234.129 502.385 233.841 501.161 233.435 499.946C224.452 469.243 215.256 437.486 200.657 407.57C196.498 399.063 192.037 390.523 187.662 382.274C174.429 356.999 160.767 330.928 154.928 302.63C149.95 278.005 149.584 252.088 149.239 227.06C149.001 208.035 148.702 188.301 146.327 169.461C143.365 145.316 131.913 129.41 118.414 112.669C110.557 102.937 94.8383 88.1758 85.9703 90.0784C84.5013 90.3848 83.3115 91.1431 82.2279 92.4278C81.0898 93.7766 80.1872 95.7598 79.4554 98.3233C78.3397 102.646 79.1324 107.577 79.744 111.809L89.6762 174.392C91.1762 183.963 91.0782 193.731 91.0676 203.136C90.9488 212.67 90.9153 222.493 92.4695 232C95.8629 252.894 102.436 271.844 112.256 288.249C128.837 316.209 151.736 358.855 159.238 406.056C162.206 424.843 162.713 444.201 163.274 462.842C163.477 469.906 163.616 476.918 163.807 483.865C163.878 485.346 163.884 486.774 163.889 488.202C162.714 487.769 161.604 487.39 160.484 486.891C160.455 485.883 160.426 484.873 160.397 483.863C160.204 476.916 160.066 469.906 159.929 462.895C159.431 444.309 158.816 425.078 155.923 406.462C148.526 359.789 125.842 317.541 109.283 289.818C99.367 273.003 92.5249 253.72 89.0899 232.354C87.5046 222.493 87.6465 212.541 87.7008 202.953C87.7758 193.603 87.8301 184.016 86.4155 174.734L76.4831 112.152C75.7216 107.576 74.8978 102.291 76.1886 97.2387C77.8069 91.1459 80.8413 87.5488 85.2481 86.6297C99.4626 83.6071 121.002 110.123 121.206 110.403Z" fill="white"/>
<path opacity="0.22" d="M59.1158 90.8682C67.2841 123.19 71.8228 156.423 72.486 189.815C72.5765 194.926 72.5586 200.164 72.4428 205.65C72.2281 224.298 71.9466 243.548 78.3558 259.953C82.2935 270.025 89.2981 279.593 96.2174 288.872C101.116 295.587 106.274 302.518 110.254 309.672C119.875 327.225 128.049 345.322 134.431 363.456C143.838 390.135 148.233 421.06 147.381 452.857C147.111 462.046 146.734 471.365 146.347 480.563C145.226 480.066 144.159 479.503 143.038 479.006C143.413 470.343 143.713 461.509 144.024 452.793C144.973 421.402 140.554 390.897 131.297 364.562C124.99 346.601 116.956 328.729 107.344 311.295C103.504 304.368 98.4762 297.544 93.5773 290.827C86.583 281.378 79.3845 271.648 75.3511 261.166C68.7066 244.127 68.9568 224.523 69.205 205.576C69.2667 200.154 69.3491 194.969 69.2587 189.857C68.5702 157.54 64.3085 125.413 56.5254 94.0695C57.2736 93.0521 58.1946 91.9602 59.1158 90.8682Z" fill="white"/>
<path opacity="0.22" d="M258.333 504.088C254.832 482.669 249.355 455.767 238.196 430.253C229.969 411.565 219.775 394.299 209.87 377.603C188.942 342.404 169.261 309.12 169.109 265.208C169.061 253.785 169.76 241.999 170.504 229.376C173.07 185.763 175.805 140.649 147.241 107.066C138.167 96.428 127.437 87.3626 117.095 78.6207C110.11 72.6815 102.813 66.5909 96.197 60.084C95.3471 59.2651 94.4868 58.3282 93.5516 57.2192C92.7179 57.9465 91.8198 58.6198 90.9863 59.347C91.9861 60.5098 92.9213 61.6189 93.8358 62.4916C100.581 69.1065 107.824 75.2612 114.927 81.1901C125.205 89.8781 135.871 98.8895 144.686 109.312C172.444 141.893 169.767 186.289 167.202 229.247C166.458 241.869 165.704 253.721 165.817 265.197C165.988 310 185.938 343.617 207.026 379.279C216.92 395.857 227.05 413.069 235.201 431.585C246.126 456.465 251.562 482.894 254.986 504.141L258.333 504.088Z" fill="white"/>
<path opacity="0.22" d="M45.7513 108.28C49.8767 126.61 52.7475 145.644 54.1806 165.339C55.1216 177.398 54.4669 189.002 53.8893 200.123C52.5313 224.822 51.232 248.148 67.0904 272.658C71.7287 279.814 77.0589 286.67 82.1954 293.365C87.8588 300.61 93.6617 308.08 98.6103 316.043C128.11 362.994 133.601 417.928 130.779 472.931C129.713 472.368 128.581 471.754 127.504 471.074C130.063 417.165 124.504 363.487 95.766 317.718C90.8923 309.929 85.1539 302.512 79.5008 295.385C74.2999 288.637 68.9052 281.726 64.1377 274.462C47.7211 249.048 48.9788 225.251 50.4036 199.951C51.0457 188.883 51.6568 177.462 50.7365 165.638C49.3531 147.189 46.8236 129.316 43.0293 112.028C43.9942 110.754 44.8405 109.49 45.7513 108.28Z" fill="white"/>
<path opacity="0.22" d="M269.832 503.504C269.07 498.929 268.438 494.46 267.741 489.938C263.984 464.91 260.035 439.064 250.857 414.985C247.808 406.857 243.858 397.322 238.069 388.659C234.332 382.914 229.732 377.541 225.27 372.395C191.534 333.072 178.263 284.231 185.7 227.28C186.564 220.776 187.644 214.016 188.756 207.611C192.096 187.738 195.435 167.211 192.016 147.391C185.156 108.171 155.227 85.5986 123.555 61.5716C117.656 57.0855 111.692 52.5454 105.836 47.8769C106.853 47.1931 107.751 46.5197 108.714 45.9004C114.247 50.2993 119.952 54.6238 125.594 58.8944C156.426 82.2208 188.292 106.41 195.376 146.801C198.964 167.202 195.472 188.039 192.155 208.148C191.043 214.554 189.951 221.195 189.087 227.698C181.74 283.631 194.82 331.655 227.89 370.202C232.361 375.467 236.963 380.84 240.893 386.747C246.885 395.689 250.91 405.398 254.033 413.697C263.363 438.12 267.332 464.201 271.045 489.412C271.752 494.053 272.395 498.639 273.221 503.269L269.832 503.504Z" fill="white"/>
<path opacity="0.22" d="M352.882 43.5792C359.25 49.9888 362.386 60.4886 365.172 69.7096C365.93 72.2029 366.624 74.6423 367.414 76.8351C371.197 87.8739 375.277 100.911 376.783 114.647C379.035 134.807 375.108 153.42 365.639 166.863C361.388 172.946 356.243 178.394 351.259 183.649C337.577 198.172 325.759 210.747 333.986 232.172C351.317 277.505 358.854 327.141 355.753 375.562L355.602 378.61C355.036 386.457 354.545 394.475 356.051 402.081C357.537 409.452 361.032 416.528 364.376 423.26L365.835 426.228C372.416 439.821 378.088 453.968 382.592 468.455C381.565 469.021 380.602 469.641 379.575 470.207C375.059 455.601 369.43 441.27 362.786 427.624L361.327 424.656C357.844 417.698 354.274 410.449 352.746 402.606C351.079 394.538 351.669 386.273 352.16 378.255L352.365 375.142C355.389 327.205 347.904 278.158 330.788 233.223C321.844 209.778 334.984 195.897 348.775 181.245C353.649 176.119 358.74 170.736 362.829 164.845C371.811 151.982 375.519 134.28 373.393 114.883C371.917 101.501 367.914 88.6359 364.151 77.8334C363.361 75.6406 362.602 73.1471 361.899 70.5895C359.209 61.7769 356.166 51.6854 350.391 45.8792C334.837 30.2699 309.581 20.6831 289.218 12.9916L287.235 12.212C281.479 10.0346 275.419 7.82397 269.059 5.58011C264.92 4.09529 260.715 2.55649 256.447 0.963867C260.042 1.00821 263.634 1.05261 267.25 1.33322C268.241 1.72307 269.233 2.11288 270.279 2.4385C276.704 4.73624 282.762 6.94685 288.584 9.17815L290.567 9.95781C311.123 17.8109 336.81 27.5388 352.882 43.5792Z" fill="white"/>
<path opacity="0.22" d="M377.487 33.5808C379.936 36.9387 382.168 40.5537 384.196 44.5437C392.774 61.117 397.059 79.9088 400.403 96.1639C403.823 112.591 406.979 130.112 404.665 147.336C402.173 165.944 393.261 180.944 378.925 190.763L378.526 190.976C364.754 200.388 354.876 207.14 353.379 224.829C352.253 238.555 356.601 251.926 361.455 265.609L364.149 273.112C374.329 301.093 384.776 330.061 381.835 359.899C381.234 365.308 380.331 370.683 379.298 375.951C377.88 383.633 376.427 391.616 376.464 399.53C376.59 419.992 386.347 439.081 395.814 457.602C396.103 458.172 396.457 458.795 396.692 459.43C395.795 460.103 394.832 460.723 393.87 461.342C393.504 460.6 393.14 459.858 392.775 459.116C383.104 440.316 373.132 420.829 373.054 399.528C372.995 391.379 374.491 383.214 375.9 375.413C376.824 370.274 377.847 364.888 378.339 359.608C381.234 330.609 370.818 301.994 360.843 274.292L358.147 266.79C353.08 252.708 348.637 238.93 349.949 224.591C351.546 205.346 362.56 197.9 376.495 188.296L376.83 188.028C390.375 178.755 398.82 164.569 401.159 146.927C403.397 130.186 400.27 113.019 396.937 96.8822C393.549 80.8095 389.293 62.372 380.984 46.1325C377.736 39.8086 373.966 34.3633 369.837 29.604C369.965 29.7119 370.15 29.7555 370.278 29.8633L377.487 33.5808Z" fill="white"/>
<path opacity="0.22" d="M405.746 52.1321C419.617 83.3033 426.193 111.122 425.77 136.93C425.257 163.758 417.494 183.658 401.989 197.863C399.716 199.906 397.259 201.905 394.856 203.84C388.092 209.25 381.782 214.383 378.668 221.855C375.316 230.004 376.85 239.274 378.771 248.868C383.592 272.375 389.382 296.035 395.843 319.162L396.261 320.494C399.204 330.833 402.168 341.407 401.753 352.334C401.588 356.576 400.927 360.621 400.266 364.666C399.759 367.745 399.262 370.944 399.003 374.121C396.893 397.753 408.431 420.081 419.959 441.636C419.125 442.363 418.238 443.154 417.34 443.827C405.392 421.595 393.382 398.654 395.625 373.819C395.938 370.577 396.425 367.261 396.985 364.119C397.658 360.191 398.319 356.146 398.451 352.206C398.853 341.815 395.91 331.476 393.051 321.428L392.69 320.032C386.044 296.861 380.307 273.137 375.477 249.512C373.395 239.455 371.874 229.649 375.51 220.642C378.918 212.43 385.899 206.762 392.717 201.289C395.066 199.419 397.522 197.419 399.742 195.44C414.532 181.952 421.946 162.856 422.423 136.983C422.882 110.219 415.599 81.1531 400.254 48.2056L400.384 48.3134L405.746 52.1321Z" fill="white"/>
<path opacity="0.22" d="M423.895 67.2773L429.641 72.7292C437.26 92.0048 443.981 111.954 445.82 132.863C448.514 162.805 439.809 189.69 422.082 206.529C420.425 208.102 418.704 209.621 416.919 211.085C412.632 214.732 408.572 218.24 405.805 222.825C398.227 235.329 402.819 246.714 407.646 258.733C409.252 262.7 410.932 266.84 412.203 271.074C418.487 292.191 421.295 313.909 420.519 335.701C420.343 339.823 420.102 343.891 419.807 348.023C419.26 356.761 418.625 365.863 419.339 374.67C420.864 392.69 427.811 409.762 435.721 426.215C434.962 427.114 434.02 427.971 433.196 428.816C424.987 411.675 417.503 393.935 415.949 374.905C415.214 365.862 415.839 356.642 416.377 347.787C416.618 343.719 416.858 339.65 417.099 335.582C417.905 314.145 415.129 292.781 408.875 272.018C407.679 267.956 406.009 263.935 404.403 259.967C399.437 247.722 394.246 234.961 402.723 221.129C405.751 216.104 410.201 212.266 414.488 208.619C416.154 207.165 417.941 205.7 419.544 204.191C436.609 188.006 444.868 162.17 442.267 133.291C440.479 110.235 432.394 88.381 423.895 67.2773Z" fill="white"/>
<path opacity="0.22" d="M451.297 96.4971L456.841 103.752C459.527 113.875 461.737 124.038 462.943 134.349C466.574 164.745 459.504 193.214 443.412 212.292C441.741 214.402 439.878 216.35 438.079 218.351C430.171 227.074 422.045 236.055 423.584 246.753C424.281 251.275 426.749 255.524 429.208 259.655L430.324 261.462C445.131 286.957 450.929 318.176 446.125 347.223C445.573 350.484 444.914 353.874 444.179 357.093C442.545 365.033 440.876 373.273 441.226 381.337C441.655 391.656 445.334 401.514 449.793 410.708C449.035 411.606 448.221 412.57 447.409 413.534C442.467 403.608 438.294 392.901 437.826 381.453C437.434 372.918 439.201 364.431 440.88 356.31C441.55 353.037 442.219 349.765 442.77 346.503C447.464 318.24 441.913 287.774 427.405 262.966L426.352 261.213C423.756 256.856 421.083 252.327 420.324 247.096C418.531 234.872 427.264 225.304 435.66 216.002C437.459 214.001 439.203 212.063 440.882 210.072C456.379 191.702 463.176 164.208 459.618 134.639C458.075 121.857 455.161 109.136 451.297 96.4971Z" fill="white"/>
<path opacity="0.22" d="M472.111 127.004L476.895 135.814C477.644 140.927 478.274 146.049 478.84 151.119C480.756 168.808 474.17 191.225 459.443 217.682C458.564 219.246 457.685 220.812 456.697 222.505C452.789 229.094 448.36 236.562 447.591 243.473C446.823 250.385 449.751 259.177 452.347 266.927C453.244 269.646 454.131 272.247 454.759 274.633L455.623 277.653C461.446 298.275 467.45 319.595 464.041 341.379C463.5 344.759 462.722 348.16 462.053 351.431C460.935 356.41 459.783 361.688 459.453 366.776C459.003 375.267 460.8 383.443 463.881 391.27C463.144 392.404 462.405 393.54 461.603 394.621C457.943 385.656 455.632 376.393 456.14 366.528C456.439 361.087 457.645 355.744 458.807 350.583C459.541 347.365 460.264 344.029 460.696 340.777C463.932 319.723 458.077 298.747 452.35 278.532L451.486 275.513C450.803 273.191 449.981 270.644 449.029 267.99C446.348 259.95 443.271 250.813 444.149 243.118C444.974 235.488 449.555 227.709 453.68 220.862C454.614 219.234 455.611 217.659 456.438 216.158C470.86 190.323 477.269 168.635 475.417 151.656C474.7 143.504 473.563 135.33 472.111 127.004Z" fill="white"/>
<path opacity="0.22" d="M481.34 360.525C480.502 353.04 480.644 345.826 480.886 338.365C481.002 332.879 481.161 327.211 480.889 321.401C479.848 300.721 476.376 280.964 470.513 262.607C470.171 261.447 469.7 260.179 469.294 258.964C466.473 250.698 463.376 241.326 466.686 232.705C468.69 227.591 472.02 222.599 475.243 217.735C477.456 214.329 479.572 211.169 481.267 207.986C487.415 196.261 490.814 183.884 492.251 170.961C493.063 173.39 493.875 175.82 494.633 178.313C492.826 189.065 489.498 199.532 484.272 209.51C482.534 212.875 480.256 216.228 478.097 219.57C474.982 224.305 471.76 229.168 469.909 233.972C467.034 241.424 469.961 250.217 472.612 257.902C473.083 259.171 473.489 260.384 473.895 261.598C479.897 280.182 483.401 300.292 484.463 321.209C484.746 327.137 484.596 332.923 484.426 338.474C484.299 343.841 484.152 348.973 484.437 354.246L481.34 360.525Z" fill="white"/>
<path opacity="0.22" d="M501.458 298.721C499.527 289.01 497.066 279.403 494.022 269.966L492.943 266.549C490.167 258.1 487.367 249.416 487.582 240.29C487.928 227.88 492.737 216.57 497.404 205.689C498.242 203.652 499.08 201.615 499.972 199.514C500.441 201.437 500.79 203.371 501.204 205.358C501.009 205.852 500.758 206.409 500.562 206.902C495.993 217.537 491.336 228.536 490.993 240.292C490.782 248.761 493.505 257.274 496.196 265.431L497.275 268.849C499.497 275.739 501.361 282.66 503 289.719L501.458 298.721Z" fill="white"/>
<path opacity="0.22" d="M114.544 147.527C111.752 146.402 108.891 146.532 106.728 147.791C102.521 150.299 102.039 155.698 102.025 159.628C102.057 175.635 103.945 191.66 107.702 207.166C110.533 218.941 117.049 226.351 123.808 225.643C126.119 225.382 128.055 224.261 129.626 222.399C132.444 219.059 134.103 213.438 134.29 206.041C134.695 188.866 130.673 171.717 122.684 156.401C121.322 153.841 119.627 150.894 116.871 148.812C116.171 148.338 115.352 147.874 114.544 147.527ZM119.711 157.969C127.475 172.769 131.325 189.337 130.934 205.977C130.686 215.402 127.728 221.909 123.463 222.399C119.316 222.879 113.701 217.535 111.051 206.457C107.314 191.189 105.393 175.464 105.382 159.693C105.391 157.073 105.629 153.659 107.309 151.668C107.634 151.283 108.024 150.952 108.478 150.674C109.787 149.905 111.524 149.932 113.378 150.604C113.939 150.853 114.445 151.167 115.016 151.534C117.072 153.139 118.553 155.689 119.711 157.969Z" fill="white"/>
</g>
</svg>
