<svg width="21" height="11" viewBox="0 0 21 11" fill="none" xmlns="http://www.w3.org/2000/svg">
<path d="M7.994 3.356H5.544L2.8 6.254V0.569999H0.7V11H2.8V9.082L3.864 7.934L5.712 11H7.994L5.222 6.436L7.994 3.356ZM17.8157 3.188C16.7797 3.188 15.9257 3.664 15.4917 4.364C15.0017 3.594 14.1897 3.188 13.2097 3.188C12.2857 3.188 11.5717 3.552 11.2077 4.28V3.356H9.24766V11H11.3477V6.534C11.3477 5.596 11.8517 5.078 12.5937 5.078C13.3357 5.078 13.8397 5.596 13.8397 6.534V11H15.9397V6.534C15.9397 5.596 16.4437 5.078 17.1857 5.078C17.9277 5.078 18.4317 5.596 18.4317 6.534V11H20.5317V6.086C20.5317 4.322 19.4117 3.188 17.8157 3.188Z" fill="#B8BEC6"/>
</svg>
