<svg width="20" height="20" viewBox="0 0 20 20" fill="none" xmlns="http://www.w3.org/2000/svg">
<path d="M3.33203 7.2219H6.10981V16.6663H3.33203V7.2219ZM4.71259 6.11079H4.69703C3.86814 6.11079 3.33203 5.49301 3.33203 4.72134C3.33203 3.93301 3.88481 3.33301 4.7287 3.33301C5.5737 3.33301 6.09425 3.93301 6.10981 4.72134C6.10981 5.49245 5.5737 6.11079 4.71259 6.11079ZM16.6654 16.6663H13.8876V11.6113C13.8876 10.3902 13.207 9.5569 12.1143 9.5569C11.2804 9.5569 10.8293 10.1191 10.6104 10.6625C10.5304 10.8569 10.5543 11.3947 10.5543 11.6663V16.6663H7.77648V7.2219H10.5543V8.67523C10.9548 8.05523 11.582 7.2219 13.1865 7.2219C15.1743 7.2219 16.6648 8.4719 16.6648 11.263L16.6654 16.6663Z" fill="#292C32"/>
</svg>
