<svg width="32" height="32" viewBox="0 0 32 32" fill="none" xmlns="http://www.w3.org/2000/svg">
<path d="M29.3115 31.1998H2.6875V0.799805H29.3275V31.1998H29.3115ZM5.8875 27.9998H26.1275V3.9998H5.8875V27.9998Z" fill="#E68A15"/>
<path d="M31.2008 28H0.800781V31.2H31.2008V28Z" fill="#E68A15"/>
<path d="M21.1045 31.1999H10.8965V23.3599C10.8965 20.5439 13.1845 18.2559 16.0005 18.2559C18.8165 18.2559 21.1045 20.5439 21.1045 23.3599V31.1999ZM14.0965 27.9999H17.8885V23.3599C17.8885 22.3199 17.0405 21.4559 15.9845 21.4559C14.9285 21.4559 14.0805 22.3039 14.0805 23.3599V27.9999H14.0965Z" fill="#E68A15"/>
<path d="M11.8562 6.65576H8.65625V9.85576H11.8562V6.65576Z" fill="#E68A15"/>
<path d="M17.6004 6.65576H14.4004V9.85576H17.6004V6.65576Z" fill="#E68A15"/>
<path d="M23.3445 6.65576H20.1445V9.85576H23.3445V6.65576Z" fill="#E68A15"/>
<path d="M11.8562 12.624H8.65625V15.824H11.8562V12.624Z" fill="#E68A15"/>
<path d="M17.6004 12.624H14.4004V15.824H17.6004V12.624Z" fill="#E68A15"/>
<path d="M23.3445 12.624H20.1445V15.824H23.3445V12.624Z" fill="#E68A15"/>
</svg>
