<svg width="24" height="24" viewBox="0 0 24 24" fill="none" xmlns="http://www.w3.org/2000/svg">
<path d="M11.9957 0C5.37129 0 0 5.37321 0 12C0 18.6268 5.37129 24 11.9957 24C18.6201 24 23.9914 18.6268 23.9914 12C23.9914 5.37321 18.6201 0 11.9957 0ZM11.9957 21.9643C6.49589 21.9643 2.03498 17.5018 2.03498 12C2.03498 6.49821 6.49589 2.03571 11.9957 2.03571C17.4955 2.03571 21.9564 6.49821 21.9564 12C21.9564 17.5018 17.4955 21.9643 11.9957 21.9643ZM15.1472 6.19821C14.7215 6.10446 14.2262 6.05357 13.6665 6.05357C10.8095 6.05357 8.87628 7.54554 8.34879 10.0688H7.49731C7.3795 10.0688 7.2831 10.1652 7.2831 10.283V11.0116C7.2831 11.1295 7.3795 11.2259 7.49731 11.2259H8.2042C8.19617 11.3357 8.19617 11.4509 8.19617 11.5688V12.5571H7.49731C7.3795 12.5571 7.2831 12.6536 7.2831 12.7714V13.5C7.2831 13.6179 7.3795 13.7143 7.49731 13.7143H8.30595C8.7665 16.3714 10.7265 17.9464 13.6665 17.9464C14.2262 17.9464 14.7215 17.9009 15.1472 17.8098C15.2463 17.7884 15.3186 17.7027 15.3186 17.6009V16.4545C15.3186 16.3205 15.1954 16.2188 15.0642 16.2455C14.6706 16.3205 14.2101 16.3554 13.6772 16.3554C11.8431 16.3554 10.6114 15.375 10.2017 13.7143H13.6987C13.8165 13.7143 13.9129 13.6179 13.9129 13.5V12.7714C13.9129 12.6536 13.8165 12.5571 13.6987 12.5571H10.0464V11.5929C10.0464 11.467 10.0464 11.3411 10.0544 11.2232H13.6933C13.8111 11.2232 13.9075 11.1268 13.9075 11.0089V10.2804C13.9075 10.1625 13.8111 10.0661 13.6933 10.0661H10.2579C10.7185 8.54196 11.9261 7.64464 13.6746 7.64464C14.2074 7.64464 14.668 7.68482 15.0589 7.7625C15.0899 7.76884 15.122 7.76821 15.1527 7.76066C15.1835 7.75312 15.2122 7.73884 15.2368 7.71885C15.2614 7.69887 15.2812 7.67368 15.2949 7.6451C15.3086 7.61652 15.3158 7.58526 15.3159 7.55357V6.40714C15.3159 6.30536 15.2463 6.21964 15.1472 6.19821Z" fill="#A1A1A2"/>
</svg>
