<svg width="20" height="20" viewBox="0 0 20 20" fill="none" xmlns="http://www.w3.org/2000/svg">
<path d="M18.028 3.35952C17.3488 3.68035 16.193 4.28202 15.6121 4.39702C15.5896 4.40285 15.5713 4.41035 15.5496 4.41619C14.8721 3.74785 13.9438 3.33369 12.9163 3.33369C10.8455 3.33369 9.16629 5.01285 9.16629 7.08369C9.16629 7.19285 9.15712 7.39369 9.16629 7.50035C6.48462 7.50035 4.52629 6.10119 3.06045 4.30285C2.86462 4.06119 2.65629 4.18702 2.61295 4.35869C2.51545 4.74702 2.48212 5.39619 2.48212 5.85952C2.48212 7.02702 3.39462 8.17369 4.81545 8.88452C4.55379 8.95202 4.26545 9.00035 3.96545 9.00035C3.61212 9.00035 3.20545 8.90785 2.84962 8.72119C2.71795 8.65202 2.43379 8.67119 2.51795 9.00785C2.85545 10.357 4.39545 11.3045 5.77129 11.5804C5.45879 11.7645 4.79212 11.727 4.48545 11.727C4.37212 11.727 3.97795 11.7004 3.72295 11.6687C3.49045 11.6404 3.13295 11.7004 3.43212 12.1537C4.07462 13.1262 5.52795 13.737 6.77879 13.7604C5.62712 14.6637 3.74379 14.9937 1.93962 14.9937C1.57462 14.9854 1.59295 15.4012 1.88712 15.5554C3.21795 16.2537 5.39795 16.667 6.95545 16.667C13.1471 16.667 16.6663 11.9479 16.6663 7.49952C16.6663 7.42785 16.6646 7.27785 16.6621 7.12702C16.6621 7.11202 16.6663 7.09785 16.6663 7.08285C16.6663 7.06035 16.6596 7.03869 16.6596 7.01619C16.6571 6.90285 16.6546 6.79702 16.6521 6.74202C17.143 6.38785 17.8946 5.77285 18.2746 5.30202C18.4038 5.14202 18.2996 4.94785 18.1238 5.00869C17.6713 5.16619 16.8888 5.47119 16.3988 5.52952C17.3796 4.88035 17.8646 4.31535 18.2813 3.68785C18.4238 3.47369 18.2455 3.25619 18.028 3.35952Z" fill="#292C32"/>
</svg>
