<svg width="37" height="36" viewBox="0 0 37 36" fill="none" xmlns="http://www.w3.org/2000/svg">
<path fill-rule="evenodd" clip-rule="evenodd" d="M18.6575 1.45335C18.5713 1.6576 18.5271 1.8765 18.5274 2.09752C18.5271 2.31854 18.5713 2.53744 18.6575 2.74169C18.7436 2.94594 18.87 3.13152 19.0294 3.2878C19.1888 3.44408 19.3781 3.568 19.5864 3.65245C19.7948 3.7369 20.018 3.78023 20.2435 3.77995L30.6482 3.77802L0.885404 32.9572C0.563983 33.2723 0.383411 33.6997 0.383411 34.1454C0.383411 34.591 0.563983 35.0184 0.885404 35.3335C1.20682 35.6486 1.64277 35.8257 2.09732 35.8257C2.55188 35.8257 2.98782 35.6486 3.30924 35.3335L33.0724 6.15394L33.0704 16.3554C33.0704 16.8016 33.2512 17.2295 33.5731 17.545C33.8949 17.8606 34.3314 18.0378 34.7865 18.0378C35.2416 18.0378 35.6781 17.8606 36 17.545C36.3218 17.2295 36.5026 16.8016 36.5026 16.3554L36.5026 2.09752C36.5029 1.8765 36.4587 1.6576 36.3725 1.45336C36.2864 1.24911 36.16 1.06353 36.0006 0.907243C35.8412 0.750961 35.6519 0.627044 35.4436 0.542592C35.2352 0.458141 35.0119 0.414815 34.7865 0.415095L20.2435 0.415093C20.018 0.414812 19.7948 0.458141 19.5864 0.542593C19.3781 0.627043 19.1888 0.750959 19.0294 0.907242C18.87 1.06353 18.7436 1.24911 18.6575 1.45335Z" fill="white"/>
</svg>
