<svg width="37" height="37" viewBox="0 0 37 37" fill="none" xmlns="http://www.w3.org/2000/svg">
<path fill-rule="evenodd" clip-rule="evenodd" d="M18.6573 1.97495C18.5712 2.1792 18.527 2.3981 18.5273 2.61912C18.527 2.84014 18.5712 3.05904 18.6573 3.26329C18.7435 3.46754 18.8699 3.65312 19.0293 3.8094C19.1887 3.96568 19.378 4.0896 19.5863 4.17405C19.7947 4.2585 20.0179 4.30183 20.2434 4.30155L30.6463 4.29962L0.884542 33.4778C0.563122 33.793 0.38255 34.2203 0.38255 34.666C0.38255 35.1116 0.563122 35.539 0.884543 35.8542C1.20596 36.1693 1.6419 36.3463 2.09646 36.3463C2.55102 36.3463 2.98696 36.1693 3.30838 35.8542L33.0723 6.67383L33.0703 16.877C33.0703 17.3232 33.2511 17.7511 33.5729 18.0667C33.8948 18.3822 34.3313 18.5594 34.7864 18.5594C35.2415 18.5594 35.678 18.3822 35.9998 18.0667C36.3217 17.7511 36.5025 17.3232 36.5025 16.877L36.5025 2.61912C36.5028 2.3981 36.4586 2.1792 36.3724 1.97495C36.2863 1.7707 36.1599 1.58513 36.0005 1.42884C35.8411 1.27256 35.6518 1.14864 35.4434 1.06419C35.2351 0.979738 35.0118 0.936412 34.7864 0.936691L20.2434 0.93669C20.0179 0.93641 19.7946 0.979738 19.5863 1.06419C19.378 1.14864 19.1887 1.27256 19.0293 1.42884C18.8699 1.58512 18.7435 1.7707 18.6573 1.97495Z" fill="#01588C"/>
</svg>
