<svg width="24" height="24" viewBox="0 0 24 24" fill="none" xmlns="http://www.w3.org/2000/svg">
<g clip-path="url(#clip0_35_78)">
<path d="M8 24V19V24ZM16 24V19V24ZM3 24V19C3 14.03 7.03 11 12 11C16.97 11 21 14.03 21 19V24H3ZM12 11C13.3261 11 14.5979 10.4732 15.5355 9.53553C16.4732 8.59785 17 7.32608 17 6C17 4.67392 16.4732 3.40215 15.5355 2.46447C14.5979 1.52678 13.3261 1 12 1C10.6739 1 9.40215 1.52678 8.46447 2.46447C7.52678 3.40215 7 4.67392 7 6C7 7.32608 7.52678 8.59785 8.46447 9.53553C9.40215 10.4732 10.6739 11 12 11V11Z" stroke="#B1B5C3" stroke-width="2"/>
</g>
<defs>
<clipPath id="clip0_35_78">
<rect width="24" height="24" fill="white"/>
</clipPath>
</defs>
</svg>
