<svg width="16" height="12" viewBox="0 0 16 12" fill="none" xmlns="http://www.w3.org/2000/svg">
<path d="M2.25 0.0917969C1.32495 0.0917969 0.5625 0.854516 0.5625 1.77989V5.59568C0.219727 5.90561 0 6.34961 0 6.84417V11.9084H2.8125V10.7831H12.9375V11.9084H15.75V6.84417C15.75 6.34961 15.5303 5.90561 15.1875 5.59568V1.77989C15.1875 0.854516 14.425 0.0917969 13.5 0.0917969H2.25ZM2.25 1.21719H13.5C13.812 1.21719 14.0625 1.46777 14.0625 1.77989V5.15608H12.9375V4.59338C12.9375 3.668 12.175 2.90529 11.25 2.90529H9C8.56934 2.90529 8.17383 3.07453 7.875 3.34489C7.57617 3.07453 7.18066 2.90529 6.75 2.90529H4.5C3.57495 2.90529 2.8125 3.668 2.8125 4.59338V5.15608H1.6875V1.77989C1.6875 1.46777 1.93799 1.21719 2.25 1.21719ZM4.5 4.03068H6.75C7.06201 4.03068 7.3125 4.28126 7.3125 4.59338V5.15608H3.9375V4.59338C3.9375 4.28126 4.18799 4.03068 4.5 4.03068ZM9 4.03068H11.25C11.562 4.03068 11.8125 4.28126 11.8125 4.59338V5.15608H8.4375V4.59338C8.4375 4.28126 8.68799 4.03068 9 4.03068ZM1.6875 6.28147H14.0625C14.3745 6.28147 14.625 6.53205 14.625 6.84417V10.7831H14.0625V9.65766H1.6875V10.7831H1.125V6.84417C1.125 6.53205 1.37549 6.28147 1.6875 6.28147Z" fill="#A1A1A2"/>
</svg>
