<svg width="14" height="16" viewBox="0 0 14 16" fill="none" xmlns="http://www.w3.org/2000/svg">
<path fill-rule="evenodd" clip-rule="evenodd" d="M13.2921 0.997559C13.683 0.997559 14 1.31459 14 1.70568V8.00005C14 8.39114 13.683 8.70817 13.2921 8.70817C12.9012 8.70817 12.5843 8.39114 12.5843 8.00005V3.41523L2.41679 13.5863H6.99999C7.39094 13.5863 7.70786 13.9034 7.70786 14.2944C7.70786 14.6855 7.39094 15.0026 6.99999 15.0026H0.707864C0.520123 15.0026 0.340074 14.928 0.207326 14.7952C0.0745777 14.6624 0 14.4822 0 14.2944V8.00005C0 7.60897 0.316919 7.29194 0.707864 7.29194C1.09881 7.29194 1.41573 7.60897 1.41573 8.00005V12.5849L11.5832 2.41379H6.99999C6.60905 2.41379 6.29213 2.09676 6.29213 1.70568C6.29213 1.31459 6.60905 0.997559 6.99999 0.997559H13.2921Z" fill="#A1A1A2"/>
</svg>
