<svg width="16" height="16" viewBox="0 0 16 16" fill="none" xmlns="http://www.w3.org/2000/svg">
<path d="M10.3333 15.0026H1V14.2245C1 12.9864 1.49167 11.799 2.36684 10.9235C3.242 10.048 4.42899 9.55617 5.66667 9.55617C6.90434 9.55617 8.09133 10.048 8.9665 10.9235C9.84167 11.799 10.3333 12.9864 10.3333 14.2245V15.0026ZM10.3333 15.0026H15V14.2245C15.0001 13.405 14.7846 12.5999 14.375 11.8901C13.9655 11.1803 13.3764 10.5909 12.667 10.1811C11.9575 9.77131 11.1527 9.55554 10.3335 9.55551C9.51427 9.55548 8.70947 9.77119 8 10.181C9.87498 11.5191 10.2617 12.6476 10.3333 15.0026ZM8.77778 4.10978C8.77778 4.9352 8.45 5.7268 7.86655 6.31046C7.28311 6.89411 6.49178 7.22201 5.66667 7.22201C4.84155 7.22201 4.05023 6.89411 3.46678 6.31046C2.88333 5.7268 2.55556 4.9352 2.55556 4.10978C2.55556 3.28437 2.88333 2.49276 3.46678 1.90911C4.05023 1.32545 4.84155 0.997559 5.66667 0.997559C6.49178 0.997559 7.28311 1.32545 7.86655 1.90911C8.45 2.49276 8.77778 3.28437 8.77778 4.10978ZM8.77778 4.10978C8.71835 4.99964 8.55245 5.44676 8 6.16852C8.41801 6.64259 8.97042 6.97808 9.58372 7.13036C10.197 7.28263 10.8421 7.24447 11.4332 7.02096C12.0243 6.79744 12.5334 6.39916 12.8926 5.87911C13.2518 5.35907 13.4443 4.74192 13.4443 4.10978C13.4443 3.47765 13.2518 2.8605 12.8926 2.34045C12.5334 1.82041 12.0243 1.42213 11.4332 1.19861C10.8421 0.975091 10.197 0.936932 9.58372 1.08921C8.97042 1.24149 8.41801 1.57698 8 2.05105C8.57825 2.77013 8.66286 3.22118 8.77778 4.10978Z" stroke="#A1A1A2" stroke-linecap="round" stroke-linejoin="round"/>
</svg>
