<svg width="16" height="16" viewBox="0 0 16 16" fill="none" xmlns="http://www.w3.org/2000/svg">
<path d="M10.3333 15H1V14.2222C1 12.9845 1.49167 11.7976 2.36684 10.9224C3.242 10.0472 4.42899 9.55556 5.66667 9.55556C6.90434 9.55556 8.09133 10.0472 8.9665 10.9224C9.84167 11.7976 10.3333 12.9845 10.3333 14.2222V15ZM10.3333 15H15V14.2222C15.0001 13.403 14.7846 12.5982 14.375 11.8887C13.9655 11.1791 13.3764 10.5899 12.667 10.1803C11.9575 9.77061 11.1527 9.55493 10.3335 9.5549C9.51427 9.55487 8.70947 9.7705 8 10.1801C9.87498 11.5177 10.2617 12.6459 10.3333 15ZM8.77778 4.11111C8.77778 4.93623 8.45 5.72755 7.86655 6.311C7.28311 6.89445 6.49178 7.22222 5.66667 7.22222C4.84155 7.22222 4.05023 6.89445 3.46678 6.311C2.88333 5.72755 2.55556 4.93623 2.55556 4.11111C2.55556 3.28599 2.88333 2.49467 3.46678 1.91122C4.05023 1.32778 4.84155 1 5.66667 1C6.49178 1 7.28311 1.32778 7.86655 1.91122C8.45 2.49467 8.77778 3.28599 8.77778 4.11111ZM8.77778 4.11111C8.71835 5.00065 8.55245 5.44761 8 6.16911C8.41801 6.64301 8.97042 6.97838 9.58372 7.13061C10.197 7.28283 10.8421 7.24468 11.4332 7.02124C12.0243 6.79781 12.5334 6.39967 12.8926 5.87981C13.2518 5.35995 13.4443 4.74302 13.4443 4.11111C13.4443 3.4792 13.2518 2.86227 12.8926 2.34241C12.5334 1.82255 12.0243 1.42442 11.4332 1.20098C10.8421 0.977541 10.197 0.939395 9.58372 1.09162C8.97042 1.24384 8.41801 1.57921 8 2.05311C8.57825 2.77194 8.66286 3.22283 8.77778 4.11111Z" stroke="#777E90" stroke-linecap="round" stroke-linejoin="round"/>
</svg>
