<svg width="14" height="14" viewBox="0 0 14 14" fill="none" xmlns="http://www.w3.org/2000/svg">
<path fill-rule="evenodd" clip-rule="evenodd" d="M13.2921 0C13.683 0 14 0.316919 14 0.707864V6.99999C14 7.39094 13.683 7.70786 13.2921 7.70786C12.9012 7.70786 12.5843 7.39094 12.5843 6.99999V2.41681L2.41679 12.5843H6.99999C7.39094 12.5843 7.70786 12.9012 7.70786 13.2921C7.70786 13.683 7.39094 14 6.99999 14H0.707864C0.520123 14 0.340074 13.9254 0.207326 13.7927C0.0745777 13.6599 0 13.4798 0 13.2921V6.99999C0 6.60905 0.316919 6.29213 0.707864 6.29213C1.09881 6.29213 1.41573 6.60905 1.41573 6.99999V11.5832L11.5832 1.41573H6.99999C6.60905 1.41573 6.29213 1.09881 6.29213 0.707864C6.29213 0.316919 6.60905 0 6.99999 0H13.2921Z" fill="#777E90"/>
</svg>
