<svg width="16" height="12" viewBox="0 0 16 12" fill="none" xmlns="http://www.w3.org/2000/svg">
<path d="M2.25 0C1.32495 0 0.5625 0.762451 0.5625 1.6875V5.50195C0.219727 5.81177 0 6.25562 0 6.75V11.8125H2.8125V10.6875H12.9375V11.8125H15.75V6.75C15.75 6.25562 15.5303 5.81177 15.1875 5.50195V1.6875C15.1875 0.762451 14.425 0 13.5 0H2.25ZM2.25 1.125H13.5C13.812 1.125 14.0625 1.37549 14.0625 1.6875V5.0625H12.9375V4.5C12.9375 3.57495 12.175 2.8125 11.25 2.8125H9C8.56934 2.8125 8.17383 2.98169 7.875 3.25195C7.57617 2.98169 7.18066 2.8125 6.75 2.8125H4.5C3.57495 2.8125 2.8125 3.57495 2.8125 4.5V5.0625H1.6875V1.6875C1.6875 1.37549 1.93799 1.125 2.25 1.125ZM4.5 3.9375H6.75C7.06201 3.9375 7.3125 4.18799 7.3125 4.5V5.0625H3.9375V4.5C3.9375 4.18799 4.18799 3.9375 4.5 3.9375ZM9 3.9375H11.25C11.562 3.9375 11.8125 4.18799 11.8125 4.5V5.0625H8.4375V4.5C8.4375 4.18799 8.68799 3.9375 9 3.9375ZM1.6875 6.1875H14.0625C14.3745 6.1875 14.625 6.43799 14.625 6.75V10.6875H14.0625V9.5625H1.6875V10.6875H1.125V6.75C1.125 6.43799 1.37549 6.1875 1.6875 6.1875Z" fill="#777E90"/>
</svg>
