<svg width="27" height="27" viewBox="0 0 27 27" fill="none" xmlns="http://www.w3.org/2000/svg">
<path d="M4.81626 19.4171L4.91508 19.1786L4.77773 18.9599C3.78212 17.3747 3.19922 15.5064 3.19922 13.4988C3.19922 7.81077 7.81098 3.2002 13.4992 3.2002C19.1867 3.2002 23.7992 7.81079 23.7992 13.4988C23.7992 19.1871 19.1865 23.8007 13.4992 23.8007C11.492 23.8007 9.62548 23.2164 8.04023 22.2213L7.82154 22.0841L7.583 22.1829L3.75328 23.7699C3.65767 23.8094 3.54932 23.8124 3.44666 23.7704C3.24158 23.6844 3.14591 23.4505 3.22974 23.2476C3.22977 23.2476 3.22979 23.2475 3.22981 23.2475L4.81626 19.4171ZM8.46453 21.5445L8.46462 21.5446C9.9812 22.4954 11.7225 23.0006 13.4992 23.0006C18.7378 23.0006 22.9991 18.7372 22.9991 13.4988C22.9991 8.26057 18.7376 4.00002 13.4992 4.00002C8.2608 4.00002 3.99931 8.26085 3.99931 13.4988C3.99931 15.2757 4.50222 17.017 5.45569 18.5339L5.81218 19.1025L4.8001 21.5466L4.33827 22.6619L5.45345 22.1998L7.89585 21.1878L8.46453 21.5445Z" fill="#E68A15" stroke="#E68A15"/>
<path d="M16.9658 16.9623L16.9649 16.9632C16.4593 17.47 15.6354 17.471 15.126 16.9627L15.1259 16.9626L15.1258 16.9625L15.1252 16.9619L15.1224 16.9591L15.1115 16.9482L15.0689 16.9056L14.9074 16.7441L14.3308 16.1674L12.5813 14.4175L10.8901 12.7257H10.8907L10.0371 11.8722C9.5293 11.3644 9.5293 10.5418 10.0371 10.034L10.0372 10.034L10.8563 9.21462L12.2348 11.5118L11.5564 12.1902L11.2029 12.5437L11.5564 12.8973L14.1008 15.4428L14.4544 15.7965L14.808 15.4429L15.4864 14.7645L17.7859 16.1443L16.9658 16.9623ZM10.0398 11.8749C10.0398 11.8749 10.0398 11.8749 10.0399 11.875L10.0398 11.8749ZM9.456 11.9481C8.99112 11.249 9.06697 10.297 9.68356 9.68044L10.5911 8.77268L9.456 11.9481Z" fill="#E68A15" stroke="#E68A15"/>
</svg>
